<?xml version="1.0" encoding="us-ascii" standalone="no"?><svg xmlns="http://www.w3.org/2000/svg" xmlns:xlink="http://www.w3.org/1999/xlink" contentStyleType="text/css" height="1404px" preserveAspectRatio="none" style="width:903px;height:1404px;background:#FFFFFF;" version="1.1" viewBox="0 0 903 1404" width="903px" zoomAndPan="magnify"><defs/><g><text fill="#000000" font-family="sans-serif" font-size="14" font-weight="bold" lengthAdjust="spacing" textLength="192" x="348.5" y="24.9659">Diagrama Sistema Boleter&#237;a</text><!--class Usuario--><g id="elem_Usuario"><rect codeLine="3" fill="#F1F1F1" height="143.3396" id="Usuario" rx="2.5" ry="2.5" style="stroke:#181818;stroke-width:0.5;" width="225" x="147.5" y="47.0679"/><ellipse cx="229.75" cy="63.0679" fill="#ADD1B2" rx="11" ry="11" style="stroke:#181818;stroke-width:1.0;"/><path d="M232.7188,68.7085 Q232.1406,69.0054 231.5,69.146 Q230.8594,69.3023 230.1563,69.3023 Q227.6563,69.3023 226.3281,67.6617 Q225.0156,66.0054 225.0156,62.8804 Q225.0156,59.7554 226.3281,58.0992 Q227.6563,56.4429 230.1563,56.4429 Q230.8594,56.4429 231.5,56.5992 Q232.1563,56.7554 232.7188,57.0523 L232.7188,59.771 Q232.0938,59.1929 231.5,58.9273 Q230.9063,58.646 230.2813,58.646 Q228.9375,58.646 228.25,59.7242 Q227.5625,60.7867 227.5625,62.8804 Q227.5625,64.9742 228.25,66.0523 Q228.9375,67.1148 230.2813,67.1148 Q230.9063,67.1148 231.5,66.8492 Q232.0938,66.5679 232.7188,65.9898 L232.7188,68.7085 Z " fill="#000000"/><text fill="#000000" font-family="sans-serif" font-size="14" lengthAdjust="spacing" textLength="52" x="250.25" y="68.4999">Usuario</text><line style="stroke:#181818;stroke-width:0.5;" x1="148.5" x2="371.5" y1="79.0679" y2="79.0679"/><rect fill="none" height="6" style="stroke:#C82930;stroke-width:1.0;" width="6" x="155.5" y="91.1019"/><text fill="#000000" font-family="sans-serif" font-size="14" lengthAdjust="spacing" textLength="102" x="167.5" y="98.0339">nombre: String</text><rect fill="none" height="6" style="stroke:#C82930;stroke-width:1.0;" width="6" x="155.5" y="110.1698"/><text fill="#000000" font-family="sans-serif" font-size="14" lengthAdjust="spacing" textLength="92" x="167.5" y="117.1018">correo: String</text><rect fill="none" height="6" style="stroke:#C82930;stroke-width:1.0;" width="6" x="155.5" y="129.2377"/><text fill="#000000" font-family="sans-serif" font-size="14" lengthAdjust="spacing" textLength="104" x="167.5" y="136.1697">telefono: String</text><line style="stroke:#181818;stroke-width:0.5;" x1="148.5" x2="371.5" y1="144.2717" y2="144.2717"/><ellipse cx="158.5" cy="159.3056" fill="#84BE84" rx="3" ry="3" style="stroke:#038048;stroke-width:1.0;"/><text fill="#000000" font-family="sans-serif" font-size="14" lengthAdjust="spacing" textLength="199" x="167.5" y="163.2376">Usuario(String, String, String)</text><ellipse cx="158.5" cy="178.3735" fill="#84BE84" rx="3" ry="3" style="stroke:#038048;stroke-width:1.0;"/><text fill="#000000" font-family="sans-serif" font-size="14" lengthAdjust="spacing" textLength="111" x="167.5" y="182.3055">toString(): String</text></g><!--class Concierto--><g id="elem_Concierto"><rect codeLine="11" fill="#F1F1F1" height="200.5433" id="Concierto" rx="2.5" ry="2.5" style="stroke:#181818;stroke-width:0.5;" width="334" x="449" y="974.0679"/><ellipse cx="579.75" cy="990.0679" fill="#ADD1B2" rx="11" ry="11" style="stroke:#181818;stroke-width:1.0;"/><path d="M582.7188,995.7085 Q582.1406,996.0054 581.5,996.146 Q580.8594,996.3023 580.1563,996.3023 Q577.6563,996.3023 576.3281,994.6617 Q575.0156,993.0054 575.0156,989.8804 Q575.0156,986.7554 576.3281,985.0992 Q577.6563,983.4429 580.1563,983.4429 Q580.8594,983.4429 581.5,983.5992 Q582.1563,983.7554 582.7188,984.0523 L582.7188,986.771 Q582.0938,986.1929 581.5,985.9273 Q580.9063,985.646 580.2813,985.646 Q578.9375,985.646 578.25,986.7242 Q577.5625,987.7867 577.5625,989.8804 Q577.5625,991.9742 578.25,993.0523 Q578.9375,994.1148 580.2813,994.1148 Q580.9063,994.1148 581.5,993.8492 Q582.0938,993.5679 582.7188,992.9898 L582.7188,995.7085 Z " fill="#000000"/><text fill="#000000" font-family="sans-serif" font-size="14" lengthAdjust="spacing" textLength="64" x="600.25" y="995.4999">Concierto</text><line style="stroke:#181818;stroke-width:0.5;" x1="450" x2="782" y1="1006.0679" y2="1006.0679"/><rect fill="none" height="6" style="stroke:#C82930;stroke-width:1.0;" width="6" x="457" y="1018.1019"/><text fill="#000000" font-family="sans-serif" font-size="14" lengthAdjust="spacing" textLength="102" x="469" y="1025.0339">nombre: String</text><rect fill="none" height="6" style="stroke:#C82930;stroke-width:1.0;" width="6" x="457" y="1037.1698"/><text fill="#000000" font-family="sans-serif" font-size="14" lengthAdjust="spacing" textLength="110" x="469" y="1044.1018">fecha: LocalDate</text><rect fill="none" height="6" style="stroke:#C82930;stroke-width:1.0;" width="6" x="457" y="1056.2377"/><text fill="#000000" font-family="sans-serif" font-size="14" lengthAdjust="spacing" textLength="106" x="469" y="1063.1697">hora: LocalTime</text><rect fill="none" height="6" style="stroke:#C82930;stroke-width:1.0;" width="6" x="457" y="1075.3056"/><text fill="#000000" font-family="sans-serif" font-size="14" lengthAdjust="spacing" textLength="83" x="469" y="1082.2376">lugar: Lugar</text><rect fill="none" height="6" style="stroke:#C82930;stroke-width:1.0;" width="6" x="457" y="1094.3735"/><text fill="#000000" font-family="sans-serif" font-size="14" lengthAdjust="spacing" textLength="138" x="469" y="1101.3055">artistas: List&lt;String&gt;</text><rect fill="none" height="6" style="stroke:#C82930;stroke-width:1.0;" width="6" x="457" y="1113.4415"/><text fill="#000000" font-family="sans-serif" font-size="14" lengthAdjust="spacing" textLength="138" x="469" y="1120.3734">boletos: List&lt;Boleto&gt;</text><line style="stroke:#181818;stroke-width:0.5;" x1="450" x2="782" y1="1128.4754" y2="1128.4754"/><ellipse cx="460" cy="1143.5094" fill="#84BE84" rx="3" ry="3" style="stroke:#038048;stroke-width:1.0;"/><text fill="#000000" font-family="sans-serif" font-size="14" lengthAdjust="spacing" textLength="308" x="469" y="1147.4414">Concierto(String, LocalDate, LocalTime, Lugar)</text><ellipse cx="460" cy="1162.5773" fill="#84BE84" rx="3" ry="3" style="stroke:#038048;stroke-width:1.0;"/><text fill="#000000" font-family="sans-serif" font-size="14" lengthAdjust="spacing" textLength="111" x="469" y="1166.5093">toString(): String</text></g><!--class Lugar--><g id="elem_Lugar"><rect codeLine="22" fill="#F1F1F1" height="143.3396" id="Lugar" rx="2.5" ry="2.5" style="stroke:#181818;stroke-width:0.5;" width="189" x="521.5" y="1254.0679"/><ellipse cx="592.25" cy="1270.0679" fill="#ADD1B2" rx="11" ry="11" style="stroke:#181818;stroke-width:1.0;"/><path d="M595.2188,1275.7085 Q594.6406,1276.0054 594,1276.146 Q593.3594,1276.3023 592.6563,1276.3023 Q590.1563,1276.3023 588.8281,1274.6617 Q587.5156,1273.0054 587.5156,1269.8804 Q587.5156,1266.7554 588.8281,1265.0992 Q590.1563,1263.4429 592.6563,1263.4429 Q593.3594,1263.4429 594,1263.5992 Q594.6563,1263.7554 595.2188,1264.0523 L595.2188,1266.771 Q594.5938,1266.1929 594,1265.9273 Q593.4063,1265.646 592.7813,1265.646 Q591.4375,1265.646 590.75,1266.7242 Q590.0625,1267.7867 590.0625,1269.8804 Q590.0625,1271.9742 590.75,1273.0523 Q591.4375,1274.1148 592.7813,1274.1148 Q593.4063,1274.1148 594,1273.8492 Q594.5938,1273.5679 595.2188,1272.9898 L595.2188,1275.7085 Z " fill="#000000"/><text fill="#000000" font-family="sans-serif" font-size="14" lengthAdjust="spacing" textLength="39" x="612.75" y="1275.4999">Lugar</text><line style="stroke:#181818;stroke-width:0.5;" x1="522.5" x2="709.5" y1="1286.0679" y2="1286.0679"/><rect fill="none" height="6" style="stroke:#C82930;stroke-width:1.0;" width="6" x="529.5" y="1298.1019"/><text fill="#000000" font-family="sans-serif" font-size="14" lengthAdjust="spacing" textLength="102" x="541.5" y="1305.0339">nombre: String</text><rect fill="none" height="6" style="stroke:#C82930;stroke-width:1.0;" width="6" x="529.5" y="1317.1698"/><text fill="#000000" font-family="sans-serif" font-size="14" lengthAdjust="spacing" textLength="111" x="541.5" y="1324.1018">direccion: String</text><rect fill="none" height="6" style="stroke:#C82930;stroke-width:1.0;" width="6" x="529.5" y="1336.2377"/><text fill="#000000" font-family="sans-serif" font-size="14" lengthAdjust="spacing" textLength="95" x="541.5" y="1343.1697">capacidad: int</text><line style="stroke:#181818;stroke-width:0.5;" x1="522.5" x2="709.5" y1="1351.2717" y2="1351.2717"/><ellipse cx="532.5" cy="1366.3056" fill="#84BE84" rx="3" ry="3" style="stroke:#038048;stroke-width:1.0;"/><text fill="#000000" font-family="sans-serif" font-size="14" lengthAdjust="spacing" textLength="163" x="541.5" y="1370.2376">Lugar(String, String, int)</text><ellipse cx="532.5" cy="1385.3735" fill="#84BE84" rx="3" ry="3" style="stroke:#038048;stroke-width:1.0;"/><text fill="#000000" font-family="sans-serif" font-size="14" lengthAdjust="spacing" textLength="111" x="541.5" y="1389.3055">toString(): String</text></g><!--class TipoAsiento--><g id="elem_TipoAsiento"><rect codeLine="30" fill="#F1F1F1" height="86.1358" id="TipoAsiento" rx="2.5" ry="2.5" style="stroke:#181818;stroke-width:0.5;" width="111" x="302.5" y="1031.5679"/><ellipse cx="317.5" cy="1047.5679" fill="#EB937F" rx="11" ry="11" style="stroke:#181818;stroke-width:1.0;"/><path d="M321.6094,1053.5679 L313.8906,1053.5679 L313.8906,1041.1773 L321.6094,1041.1773 L321.6094,1043.3335 L316.3438,1043.3335 L316.3438,1046.0054 L321.1094,1046.0054 L321.1094,1048.1617 L316.3438,1048.1617 L316.3438,1051.4117 L321.6094,1051.4117 L321.6094,1053.5679 Z " fill="#000000"/><text fill="#000000" font-family="sans-serif" font-size="14" lengthAdjust="spacing" textLength="79" x="331.5" y="1052.9999">TipoAsiento</text><line style="stroke:#181818;stroke-width:0.5;" x1="303.5" x2="412.5" y1="1063.5679" y2="1063.5679"/><text fill="#000000" font-family="sans-serif" font-size="14" lengthAdjust="spacing" textLength="25" x="308.5" y="1082.5339">VIP,</text><text fill="#000000" font-family="sans-serif" font-size="14" lengthAdjust="spacing" textLength="53" x="308.5" y="1101.6018">General</text><line style="stroke:#181818;stroke-width:0.5;" x1="303.5" x2="412.5" y1="1109.7038" y2="1109.7038"/></g><!--class Asiento--><g id="elem_Asiento"><rect codeLine="35" fill="#F1F1F1" height="143.3396" id="Asiento" rx="2.5" ry="2.5" style="stroke:#181818;stroke-width:0.5;" width="238" x="7" y="1003.0679"/><ellipse cx="96.75" cy="1019.0679" fill="#ADD1B2" rx="11" ry="11" style="stroke:#181818;stroke-width:1.0;"/><path d="M99.7188,1024.7085 Q99.1406,1025.0054 98.5,1025.146 Q97.8594,1025.3023 97.1563,1025.3023 Q94.6563,1025.3023 93.3281,1023.6617 Q92.0156,1022.0054 92.0156,1018.8804 Q92.0156,1015.7554 93.3281,1014.0992 Q94.6563,1012.4429 97.1563,1012.4429 Q97.8594,1012.4429 98.5,1012.5992 Q99.1563,1012.7554 99.7188,1013.0523 L99.7188,1015.771 Q99.0938,1015.1929 98.5,1014.9273 Q97.9063,1014.646 97.2813,1014.646 Q95.9375,1014.646 95.25,1015.7242 Q94.5625,1016.7867 94.5625,1018.8804 Q94.5625,1020.9742 95.25,1022.0523 Q95.9375,1023.1148 97.2813,1023.1148 Q97.9063,1023.1148 98.5,1022.8492 Q99.0938,1022.5679 99.7188,1021.9898 L99.7188,1024.7085 Z " fill="#000000"/><text fill="#000000" font-family="sans-serif" font-size="14" lengthAdjust="spacing" textLength="50" x="117.25" y="1024.4999">Asiento</text><line style="stroke:#181818;stroke-width:0.5;" x1="8" x2="244" y1="1035.0679" y2="1035.0679"/><rect fill="none" height="6" style="stroke:#C82930;stroke-width:1.0;" width="6" x="15" y="1047.1019"/><text fill="#000000" font-family="sans-serif" font-size="14" lengthAdjust="spacing" textLength="79" x="27" y="1054.0339">numero: int</text><rect fill="none" height="6" style="stroke:#C82930;stroke-width:1.0;" width="6" x="15" y="1066.1698"/><text fill="#000000" font-family="sans-serif" font-size="14" lengthAdjust="spacing" textLength="70" x="27" y="1073.1018">fila: String</text><rect fill="none" height="6" style="stroke:#C82930;stroke-width:1.0;" width="6" x="15" y="1085.2377"/><text fill="#000000" font-family="sans-serif" font-size="14" lengthAdjust="spacing" textLength="113" x="27" y="1092.1697">tipo: TipoAsiento</text><line style="stroke:#181818;stroke-width:0.5;" x1="8" x2="244" y1="1100.2717" y2="1100.2717"/><ellipse cx="18" cy="1115.3056" fill="#84BE84" rx="3" ry="3" style="stroke:#038048;stroke-width:1.0;"/><text fill="#000000" font-family="sans-serif" font-size="14" lengthAdjust="spacing" textLength="212" x="27" y="1119.2376">Asiento(int, String, TipoAsiento)</text><ellipse cx="18" cy="1134.3735" fill="#84BE84" rx="3" ry="3" style="stroke:#038048;stroke-width:1.0;"/><text fill="#000000" font-family="sans-serif" font-size="14" lengthAdjust="spacing" textLength="111" x="27" y="1138.3055">toString(): String</text></g><!--class EstadoBoleto--><g id="elem_EstadoBoleto"><rect codeLine="43" fill="#F1F1F1" height="86.1358" id="EstadoBoleto" rx="2.5" ry="2.5" style="stroke:#181818;stroke-width:0.5;" width="119" x="443.5" y="751.5679"/><ellipse cx="458.5" cy="767.5679" fill="#EB937F" rx="11" ry="11" style="stroke:#181818;stroke-width:1.0;"/><path d="M462.6094,773.5679 L454.8906,773.5679 L454.8906,761.1773 L462.6094,761.1773 L462.6094,763.3335 L457.3438,763.3335 L457.3438,766.0054 L462.1094,766.0054 L462.1094,768.1617 L457.3438,768.1617 L457.3438,771.4117 L462.6094,771.4117 L462.6094,773.5679 Z " fill="#000000"/><text fill="#000000" font-family="sans-serif" font-size="14" lengthAdjust="spacing" textLength="87" x="472.5" y="772.9999">EstadoBoleto</text><line style="stroke:#181818;stroke-width:0.5;" x1="444.5" x2="561.5" y1="783.5679" y2="783.5679"/><text fill="#000000" font-family="sans-serif" font-size="14" lengthAdjust="spacing" textLength="76" x="449.5" y="802.5339">Disponible,</text><text fill="#000000" font-family="sans-serif" font-size="14" lengthAdjust="spacing" textLength="55" x="449.5" y="821.6018">Vendido</text><line style="stroke:#181818;stroke-width:0.5;" x1="444.5" x2="561.5" y1="829.7038" y2="829.7038"/></g><!--class Boleto--><g id="elem_Boleto"><rect codeLine="48" fill="#F1F1F1" height="200.5433" id="Boleto" rx="2.5" ry="2.5" style="stroke:#181818;stroke-width:0.5;" width="374" x="12" y="694.0679"/><ellipse cx="173.75" cy="710.0679" fill="#ADD1B2" rx="11" ry="11" style="stroke:#181818;stroke-width:1.0;"/><path d="M176.7188,715.7085 Q176.1406,716.0054 175.5,716.146 Q174.8594,716.3023 174.1563,716.3023 Q171.6563,716.3023 170.3281,714.6617 Q169.0156,713.0054 169.0156,709.8804 Q169.0156,706.7554 170.3281,705.0992 Q171.6563,703.4429 174.1563,703.4429 Q174.8594,703.4429 175.5,703.5992 Q176.1563,703.7554 176.7188,704.0523 L176.7188,706.771 Q176.0938,706.1929 175.5,705.9273 Q174.9063,705.646 174.2813,705.646 Q172.9375,705.646 172.25,706.7242 Q171.5625,707.7867 171.5625,709.8804 Q171.5625,711.9742 172.25,713.0523 Q172.9375,714.1148 174.2813,714.1148 Q174.9063,714.1148 175.5,713.8492 Q176.0938,713.5679 176.7188,712.9898 L176.7188,715.7085 Z " fill="#000000"/><text fill="#000000" font-family="sans-serif" font-size="14" lengthAdjust="spacing" textLength="42" x="194.25" y="715.4999">Boleto</text><line style="stroke:#181818;stroke-width:0.5;" x1="13" x2="385" y1="726.0679" y2="726.0679"/><rect fill="none" height="6" style="stroke:#C82930;stroke-width:1.0;" width="6" x="20" y="738.1019"/><text fill="#000000" font-family="sans-serif" font-size="14" lengthAdjust="spacing" textLength="39" x="32" y="745.0339">id: int</text><rect fill="none" height="6" style="stroke:#C82930;stroke-width:1.0;" width="6" x="20" y="757.1698"/><text fill="#000000" font-family="sans-serif" font-size="14" lengthAdjust="spacing" textLength="97" x="32" y="764.1018">precio: double</text><rect fill="none" height="6" style="stroke:#C82930;stroke-width:1.0;" width="6" x="20" y="776.2377"/><text fill="#000000" font-family="sans-serif" font-size="14" lengthAdjust="spacing" textLength="140" x="32" y="783.1697">estado: EstadoBoleto</text><rect fill="none" height="6" style="stroke:#C82930;stroke-width:1.0;" width="6" x="20" y="795.3056"/><text fill="#000000" font-family="sans-serif" font-size="14" lengthAdjust="spacing" textLength="134" x="32" y="802.2376">concierto: Concierto</text><rect fill="none" height="6" style="stroke:#C82930;stroke-width:1.0;" width="6" x="20" y="814.3735"/><text fill="#000000" font-family="sans-serif" font-size="14" lengthAdjust="spacing" textLength="107" x="32" y="821.3055">asiento: Asiento</text><line style="stroke:#181818;stroke-width:0.5;" x1="13" x2="385" y1="829.4075" y2="829.4075"/><ellipse cx="23" cy="844.4415" fill="#84BE84" rx="3" ry="3" style="stroke:#038048;stroke-width:1.0;"/><text fill="#000000" font-family="sans-serif" font-size="14" lengthAdjust="spacing" textLength="348" x="32" y="848.3734">Boleto(int, double, EstadoBoleto, Concierto, Asiento)</text><ellipse cx="23" cy="863.5094" fill="#84BE84" rx="3" ry="3" style="stroke:#038048;stroke-width:1.0;"/><text fill="#000000" font-family="sans-serif" font-size="14" lengthAdjust="spacing" textLength="196" x="32" y="867.4414">setEstado(EstadoBoleto): void</text><ellipse cx="23" cy="882.5773" fill="#84BE84" rx="3" ry="3" style="stroke:#038048;stroke-width:1.0;"/><text fill="#000000" font-family="sans-serif" font-size="14" lengthAdjust="spacing" textLength="111" x="32" y="886.5093">toString(): String</text></g><!--class Compra--><g id="elem_Compra"><rect codeLine="59" fill="#F1F1F1" height="143.3396" id="Compra" rx="2.5" ry="2.5" style="stroke:#181818;stroke-width:0.5;" width="301" x="80.5" y="472.0679"/><ellipse cx="200.25" cy="488.0679" fill="#ADD1B2" rx="11" ry="11" style="stroke:#181818;stroke-width:1.0;"/><path d="M203.2188,493.7085 Q202.6406,494.0054 202,494.146 Q201.3594,494.3023 200.6563,494.3023 Q198.1563,494.3023 196.8281,492.6617 Q195.5156,491.0054 195.5156,487.8804 Q195.5156,484.7554 196.8281,483.0992 Q198.1563,481.4429 200.6563,481.4429 Q201.3594,481.4429 202,481.5992 Q202.6563,481.7554 203.2188,482.0523 L203.2188,484.771 Q202.5938,484.1929 202,483.9273 Q201.4063,483.646 200.7813,483.646 Q199.4375,483.646 198.75,484.7242 Q198.0625,485.7867 198.0625,487.8804 Q198.0625,489.9742 198.75,491.0523 Q199.4375,492.1148 200.7813,492.1148 Q201.4063,492.1148 202,491.8492 Q202.5938,491.5679 203.2188,490.9898 L203.2188,493.7085 Z " fill="#000000"/><text fill="#000000" font-family="sans-serif" font-size="14" lengthAdjust="spacing" textLength="53" x="220.75" y="493.4999">Compra</text><line style="stroke:#181818;stroke-width:0.5;" x1="81.5" x2="380.5" y1="504.0679" y2="504.0679"/><rect fill="none" height="6" style="stroke:#C82930;stroke-width:1.0;" width="6" x="88.5" y="516.1019"/><text fill="#000000" font-family="sans-serif" font-size="14" lengthAdjust="spacing" textLength="111" x="100.5" y="523.0339">usuario: Usuario</text><rect fill="none" height="6" style="stroke:#C82930;stroke-width:1.0;" width="6" x="88.5" y="535.1698"/><text fill="#000000" font-family="sans-serif" font-size="14" lengthAdjust="spacing" textLength="215" x="100.5" y="542.1018">boletosComprados: List&lt;Boleto&gt;</text><rect fill="none" height="6" style="stroke:#C82930;stroke-width:1.0;" width="6" x="88.5" y="554.2377"/><text fill="#000000" font-family="sans-serif" font-size="14" lengthAdjust="spacing" textLength="110" x="100.5" y="561.1697">fecha: LocalDate</text><line style="stroke:#181818;stroke-width:0.5;" x1="81.5" x2="380.5" y1="569.2717" y2="569.2717"/><ellipse cx="91.5" cy="584.3056" fill="#84BE84" rx="3" ry="3" style="stroke:#038048;stroke-width:1.0;"/><text fill="#000000" font-family="sans-serif" font-size="14" lengthAdjust="spacing" textLength="275" x="100.5" y="588.2376">Compra(Usuario, List&lt;Boleto&gt;, LocalDate)</text><ellipse cx="91.5" cy="603.3735" fill="#84BE84" rx="3" ry="3" style="stroke:#038048;stroke-width:1.0;"/><text fill="#000000" font-family="sans-serif" font-size="14" lengthAdjust="spacing" textLength="111" x="100.5" y="607.3055">toString(): String</text></g><!--class SistemaVentas--><g id="elem_SistemaVentas"><rect codeLine="67" fill="#F1F1F1" height="124.2717" id="SistemaVentas" rx="2.5" ry="2.5" style="stroke:#181818;stroke-width:0.5;" width="582" x="314" y="269.0679"/><ellipse cx="551.75" cy="285.0679" fill="#ADD1B2" rx="11" ry="11" style="stroke:#181818;stroke-width:1.0;"/><path d="M554.7188,290.7085 Q554.1406,291.0054 553.5,291.146 Q552.8594,291.3023 552.1563,291.3023 Q549.6563,291.3023 548.3281,289.6617 Q547.0156,288.0054 547.0156,284.8804 Q547.0156,281.7554 548.3281,280.0992 Q549.6563,278.4429 552.1563,278.4429 Q552.8594,278.4429 553.5,278.5992 Q554.1563,278.7554 554.7188,279.0523 L554.7188,281.771 Q554.0938,281.1929 553.5,280.9273 Q552.9063,280.646 552.2813,280.646 Q550.9375,280.646 550.25,281.7242 Q549.5625,282.7867 549.5625,284.8804 Q549.5625,286.9742 550.25,288.0523 Q550.9375,289.1148 552.2813,289.1148 Q552.9063,289.1148 553.5,288.8492 Q554.0938,288.5679 554.7188,287.9898 L554.7188,290.7085 Z " fill="#000000"/><text fill="#000000" font-family="sans-serif" font-size="14" lengthAdjust="spacing" textLength="98" x="572.25" y="290.4999">SistemaVentas</text><line style="stroke:#181818;stroke-width:0.5;" x1="315" x2="895" y1="301.0679" y2="301.0679"/><line style="stroke:#181818;stroke-width:0.5;" x1="315" x2="895" y1="309.0679" y2="309.0679"/><ellipse cx="325" cy="324.1019" fill="#84BE84" rx="3" ry="3" style="stroke:#038048;stroke-width:1.0;"/><text fill="#000000" font-family="sans-serif" font-size="14" lengthAdjust="spacing" textLength="556" x="334" y="328.0339">buscarConciertos(nombre: String, fecha: LocalDate, artista: String): List&lt;Concierto&gt;</text><ellipse cx="325" cy="343.1698" fill="#84BE84" rx="3" ry="3" style="stroke:#038048;stroke-width:1.0;"/><text fill="#000000" font-family="sans-serif" font-size="14" lengthAdjust="spacing" textLength="393" x="334" y="347.1018">seleccionarAsiento(Concierto, numeroAsiento: int): Asiento</text><ellipse cx="325" cy="362.2377" fill="#84BE84" rx="3" ry="3" style="stroke:#038048;stroke-width:1.0;"/><text fill="#000000" font-family="sans-serif" font-size="14" lengthAdjust="spacing" textLength="396" x="334" y="366.1697">comprarBoleto(usr: Usuario, boletos: List&lt;Boleto&gt;): Compra</text><ellipse cx="325" cy="381.3056" fill="#84BE84" rx="3" ry="3" style="stroke:#038048;stroke-width:1.0;"/><text fill="#000000" font-family="sans-serif" font-size="14" lengthAdjust="spacing" textLength="310" x="334" y="385.2376">confirmacionCompra(compra: Compra): String</text></g><!--link Boleto to EstadoBoleto--><g id="link_Boleto_EstadoBoleto"><path codeLine="74" d="M386.34,794.5679 C406.74,794.5679 420.25,794.5679 437.27,794.5679 " fill="none" id="Boleto-to-EstadoBoleto" style="stroke:#181818;stroke-width:1.0;"/><polygon fill="#181818" points="443.27,794.5679,434.27,790.5679,438.27,794.5679,434.27,798.5679,443.27,794.5679" style="stroke:#181818;stroke-width:1.0;"/><text fill="#000000" font-family="sans-serif" font-size="13" lengthAdjust="spacing" textLength="21" x="404.25" y="787.4649">usa</text></g><!--link Asiento to TipoAsiento--><g id="link_Asiento_TipoAsiento"><path codeLine="75" d="M245.06,1074.5679 C265.08,1074.5679 278.99,1074.5679 296.38,1074.5679 " fill="none" id="Asiento-to-TipoAsiento" style="stroke:#181818;stroke-width:1.0;"/><polygon fill="#181818" points="302.38,1074.5679,293.38,1070.5679,297.38,1074.5679,293.38,1078.5679,302.38,1074.5679" style="stroke:#181818;stroke-width:1.0;"/><text fill="#000000" font-family="sans-serif" font-size="13" lengthAdjust="spacing" textLength="21" x="263.25" y="1067.4649">usa</text></g><!--link Usuario to SistemaVentas--><g id="link_Usuario_SistemaVentas"><path codeLine="78" d="M372.97,188.4979 C415.51,214.4479 458.4382,240.6427 499.7382,265.8427 " fill="none" id="Usuario-to-SistemaVentas" style="stroke:#181818;stroke-width:1.0;stroke-dasharray:7.0,7.0;"/><polygon fill="#181818" points="504.86,268.9679,499.2607,260.8656,500.5918,266.3636,495.0938,267.6947,504.86,268.9679" style="stroke:#181818;stroke-width:1.0;"/><text fill="#000000" font-family="sans-serif" font-size="13" lengthAdjust="spacing" textLength="21" x="454" y="234.9649">usa</text></g><!--link SistemaVentas to Compra--><g id="link_SistemaVentas_Compra"><path codeLine="79" d="M496.57,393.0979 C452.78,417.7379 407.1983,443.3943 361.8183,468.9443 " fill="none" id="SistemaVentas-to-Compra" style="stroke:#181818;stroke-width:1.0;stroke-dasharray:7.0,7.0;"/><polygon fill="#181818" points="356.59,471.8879,366.3949,470.958,360.9469,469.4349,362.47,463.9869,356.59,471.8879" style="stroke:#181818;stroke-width:1.0;"/><text fill="#000000" font-family="sans-serif" font-size="13" lengthAdjust="spacing" textLength="25" x="441" y="437.9649">crea</text></g><!--link SistemaVentas to Concierto--><g id="link_SistemaVentas_Concierto"><path codeLine="80" d="M605.91,393.3779 C607.81,521.4179 612.121,812.1986 614.431,967.9886 " fill="none" id="SistemaVentas-to-Concierto" style="stroke:#181818;stroke-width:1.0;stroke-dasharray:7.0,7.0;"/><polygon fill="#181818" points="614.52,973.9879,618.3861,964.9296,614.4459,968.9885,610.387,965.0482,614.52,973.9879" style="stroke:#181818;stroke-width:1.0;"/><text fill="#000000" font-family="sans-serif" font-size="13" lengthAdjust="spacing" textLength="51" x="610" y="659.9649">consulta</text></g><!--link Usuario to Compra--><g id="link_Usuario_Compra"><path codeLine="82" d="M254.68,190.2879 C252.84,215.1879 250.79,243.3679 249,269.0679 C244.19,338.0179 239.8218,404.7928 236.2618,460.0328 " fill="none" id="Usuario-to-Compra" style="stroke:#181818;stroke-width:1.0;"/><polygon fill="none" points="235.49,472.0079,239.8676,466.2776,236.2618,460.0328,231.8842,465.7631,235.49,472.0079" style="stroke:#181818;stroke-width:1.0;"/><text fill="#000000" font-family="sans-serif" font-size="13" lengthAdjust="spacing" textLength="46" x="250" y="336.4649">registra</text><text fill="#000000" font-family="sans-serif" font-size="13" lengthAdjust="spacing" textLength="20" x="233.1001" y="212.4765">1..*</text><text fill="#000000" font-family="sans-serif" font-size="13" lengthAdjust="spacing" textLength="20" x="214.8873" y="460.1684">1..*</text></g><!--link Compra to Boleto--><g id="link_Compra_Boleto"><path codeLine="83" d="M221.92,615.2579 C218.77,639.6979 215.9542,661.6168 212.5742,687.9368 " fill="none" id="Compra-to-Boleto" style="stroke:#181818;stroke-width:1.0;"/><polygon fill="#181818" points="211.81,693.8879,216.9238,685.4707,212.4469,688.9286,208.9889,684.4517,211.81,693.8879" style="stroke:#181818;stroke-width:1.0;"/><text fill="#000000" font-family="sans-serif" font-size="13" lengthAdjust="spacing" textLength="7" x="213.6227" y="637.4434">1</text><text fill="#000000" font-family="sans-serif" font-size="13" lengthAdjust="spacing" textLength="20" x="192.0339" y="682.131">1..*</text></g><!--link Boleto to Concierto--><g id="link_Boleto_Concierto"><path codeLine="84" d="M348.37,895.1479 C386.81,920.7779 418.1958,941.7009 456.6358,967.3309 " fill="none" id="Boleto-to-Concierto" style="stroke:#181818;stroke-width:1.0;"/><polygon fill="#181818" points="466.62,973.9879,463.8469,967.3313,456.6358,967.3309,459.4089,973.9875,466.62,973.9879" style="stroke:#181818;stroke-width:1.0;"/><text fill="#000000" font-family="sans-serif" font-size="13" lengthAdjust="spacing" textLength="75" x="421" y="939.9649">son parte de</text><text fill="#000000" font-family="sans-serif" font-size="13" lengthAdjust="spacing" textLength="20" x="337.7339" y="916.4128">1..*</text><text fill="#000000" font-family="sans-serif" font-size="13" lengthAdjust="spacing" textLength="7" x="447.4374" y="962.2389">1</text></g><!--link Concierto to Lugar--><g id="link_Concierto_Lugar"><path codeLine="85" d="M616,1175.4079 C616,1201.6579 616,1217.4279 616,1241.7979 " fill="none" id="Concierto-to-Lugar" style="stroke:#181818;stroke-width:1.0;"/><polygon fill="none" points="616,1253.7979,620,1247.7979,616,1241.7979,612,1247.7979,616,1253.7979" style="stroke:#181818;stroke-width:1.0;"/><text fill="#000000" font-family="sans-serif" font-size="13" lengthAdjust="spacing" textLength="49" x="617" y="1219.9649">necesita</text><text fill="#000000" font-family="sans-serif" font-size="13" lengthAdjust="spacing" textLength="20" x="595.3594" y="1196.3468">1..*</text><text fill="#000000" font-family="sans-serif" font-size="13" lengthAdjust="spacing" textLength="7" x="608.6391" y="1242.436">1</text></g><!--link Boleto to Asiento--><g id="link_Boleto_Asiento"><path codeLine="86" d="M172.85,895.1479 C163.48,930.8279 154.6436,964.4746 146.0536,997.1946 " fill="none" id="Boleto-to-Asiento" style="stroke:#181818;stroke-width:1.0;"/><polygon fill="#181818" points="144.53,1002.9979,150.6842,995.3086,145.7996,998.1618,142.9464,993.2772,144.53,1002.9979" style="stroke:#181818;stroke-width:1.0;"/><text fill="#000000" font-family="sans-serif" font-size="13" lengthAdjust="spacing" textLength="30" x="166" y="939.9649">tiene</text><text fill="#000000" font-family="sans-serif" font-size="13" lengthAdjust="spacing" textLength="7" x="163.8579" y="916.4128">1</text><text fill="#000000" font-family="sans-serif" font-size="13" lengthAdjust="spacing" textLength="7" x="139.1739" y="991.1573">1</text></g><!--SRC=[ZLJ1Rjim3BtxAuYSdCOEiAin1EYQOHYmmu1slIioamgm9KEITndsIVkA_TWOKvAjB4ZZYsoI8XyV-UoLxn3sIfoiw0KyA-UHpa-cGu_sxnzH5B8Jpi4FDmghpAy2wAcrwGyM6tZsLkaJswIn5arkyzZXqUZSkWcvIhPLa9zh3lA6FyjrklmxWdaoMYgq_XQS8yetqS0t8qMt5nxP-cPiDBweFXYxyIGiMSy7MuJrn8HmPAJp8-VTiUzmviP4ryIKOTScuKgjfVBLNBJYIdVqESNTwB5L5gLKHbzCGWn2gbQq3IZjkSoKwZ_6oNqJ1kgnXnSrc4UdK7i33ERrw_TgUlc26gtePiGXBc8UUxHcHb4VLISkDeIIDyiI32Tyb7HpHhk8UX_rPvfVQtWy36Ult62qEdJ8u5zHjwerC_XbSAqMxDK3yQm8Psj6kiusd0eqMQ6eXB06pRofOQyOVGDPitoNU-KALPQrcjDKa1FWq7DakRn0RFmqghr7IFrWHUXuP5asKUlPkdDaUtNlhsjjmrVAaAtAxYsKSOSEmc-91aQQPBIRm-Yai8aOL-O2gU0IL0L1rJ5a7Lf9ENQHquvL9MnSmmN_lDEFSP1d1LsCKqvzsp3LqTd4Q0LNVnxh9WmYtjT7PNjnXX0uv9GnRC4GnHS5fu5wbsrD0wCJHHGkEHVoOLzH15omtUvoaZaWCqr1Jm68j7ZTdJQVkd1ZvyLSPFLXktrOGLsdrvZDuebIKVzi8FSvR1V3WhP2codDmnItAEcCXe66ZD1YaUnvtHN_L1lGAD4fmfVInfehI2nvEl4V]--></g></svg>