<?xml version="1.0" encoding="us-ascii" standalone="no"?><svg xmlns="http://www.w3.org/2000/svg" xmlns:xlink="http://www.w3.org/1999/xlink" contentStyleType="text/css" height="1563px" preserveAspectRatio="none" style="width:957px;height:1563px;background:#FFFFFF;" version="1.1" viewBox="0 0 957 1563" width="957px" zoomAndPan="magnify"><defs/><g><text fill="#000000" font-family="sans-serif" font-size="14" font-weight="bold" lengthAdjust="spacing" textLength="192" x="375.75" y="24.9659">Diagrama Sistema Boleter&#237;a</text><!--class Usuario--><g id="elem_Usuario"><rect codeLine="3" fill="#F1F1F1" height="162.4075" id="Usuario" rx="2.5" ry="2.5" style="stroke:#181818;stroke-width:0.5;" width="225" x="623.5" y="47.0679"/><ellipse cx="705.75" cy="63.0679" fill="#ADD1B2" rx="11" ry="11" style="stroke:#181818;stroke-width:1.0;"/><path d="M708.7188,68.7085 Q708.1406,69.0054 707.5,69.146 Q706.8594,69.3023 706.1563,69.3023 Q703.6563,69.3023 702.3281,67.6617 Q701.0156,66.0054 701.0156,62.8804 Q701.0156,59.7554 702.3281,58.0992 Q703.6563,56.4429 706.1563,56.4429 Q706.8594,56.4429 707.5,56.5992 Q708.1563,56.7554 708.7188,57.0523 L708.7188,59.771 Q708.0938,59.1929 707.5,58.9273 Q706.9063,58.646 706.2813,58.646 Q704.9375,58.646 704.25,59.7242 Q703.5625,60.7867 703.5625,62.8804 Q703.5625,64.9742 704.25,66.0523 Q704.9375,67.1148 706.2813,67.1148 Q706.9063,67.1148 707.5,66.8492 Q708.0938,66.5679 708.7188,65.9898 L708.7188,68.7085 Z " fill="#000000"/><text fill="#000000" font-family="sans-serif" font-size="14" lengthAdjust="spacing" textLength="52" x="726.25" y="68.4999">Usuario</text><line style="stroke:#181818;stroke-width:0.5;" x1="624.5" x2="847.5" y1="79.0679" y2="79.0679"/><rect fill="none" height="6" style="stroke:#C82930;stroke-width:1.0;" width="6" x="631.5" y="91.1019"/><text fill="#000000" font-family="sans-serif" font-size="14" lengthAdjust="spacing" textLength="102" x="643.5" y="98.0339">nombre: String</text><rect fill="none" height="6" style="stroke:#C82930;stroke-width:1.0;" width="6" x="631.5" y="110.1698"/><text fill="#000000" font-family="sans-serif" font-size="14" lengthAdjust="spacing" textLength="92" x="643.5" y="117.1018">correo: String</text><rect fill="none" height="6" style="stroke:#C82930;stroke-width:1.0;" width="6" x="631.5" y="129.2377"/><text fill="#000000" font-family="sans-serif" font-size="14" lengthAdjust="spacing" textLength="104" x="643.5" y="136.1697">telefono: String</text><line style="stroke:#181818;stroke-width:0.5;" x1="624.5" x2="847.5" y1="144.2717" y2="144.2717"/><ellipse cx="634.5" cy="159.3056" fill="#84BE84" rx="3" ry="3" style="stroke:#038048;stroke-width:1.0;"/><text fill="#000000" font-family="sans-serif" font-size="14" lengthAdjust="spacing" textLength="199" x="643.5" y="163.2376">Usuario(String, String, String)</text><ellipse cx="634.5" cy="178.3735" fill="#84BE84" rx="3" ry="3" style="stroke:#038048;stroke-width:1.0;"/><text fill="#000000" font-family="sans-serif" font-size="14" lengthAdjust="spacing" textLength="134" x="643.5" y="182.3055">getNombre(): String</text><ellipse cx="634.5" cy="197.4415" fill="#84BE84" rx="3" ry="3" style="stroke:#038048;stroke-width:1.0;"/><text fill="#000000" font-family="sans-serif" font-size="14" lengthAdjust="spacing" textLength="111" x="643.5" y="201.3734">toString(): String</text></g><!--class Concierto--><g id="elem_Concierto"><rect codeLine="12" fill="#F1F1F1" height="295.8829" id="Concierto" rx="2.5" ry="2.5" style="stroke:#181818;stroke-width:0.5;" width="422" x="87" y="981.0679"/><ellipse cx="261.75" cy="997.0679" fill="#ADD1B2" rx="11" ry="11" style="stroke:#181818;stroke-width:1.0;"/><path d="M264.7188,1002.7085 Q264.1406,1003.0054 263.5,1003.146 Q262.8594,1003.3023 262.1563,1003.3023 Q259.6563,1003.3023 258.3281,1001.6617 Q257.0156,1000.0054 257.0156,996.8804 Q257.0156,993.7554 258.3281,992.0992 Q259.6563,990.4429 262.1563,990.4429 Q262.8594,990.4429 263.5,990.5992 Q264.1563,990.7554 264.7188,991.0523 L264.7188,993.771 Q264.0938,993.1929 263.5,992.9273 Q262.9063,992.646 262.2813,992.646 Q260.9375,992.646 260.25,993.7242 Q259.5625,994.7867 259.5625,996.8804 Q259.5625,998.9742 260.25,1000.0523 Q260.9375,1001.1148 262.2813,1001.1148 Q262.9063,1001.1148 263.5,1000.8492 Q264.0938,1000.5679 264.7188,999.9898 L264.7188,1002.7085 Z " fill="#000000"/><text fill="#000000" font-family="sans-serif" font-size="14" lengthAdjust="spacing" textLength="64" x="282.25" y="1002.4999">Concierto</text><line style="stroke:#181818;stroke-width:0.5;" x1="88" x2="508" y1="1013.0679" y2="1013.0679"/><rect fill="none" height="6" style="stroke:#C82930;stroke-width:1.0;" width="6" x="95" y="1025.1019"/><text fill="#000000" font-family="sans-serif" font-size="14" lengthAdjust="spacing" textLength="102" x="107" y="1032.0339">nombre: String</text><rect fill="none" height="6" style="stroke:#C82930;stroke-width:1.0;" width="6" x="95" y="1044.1698"/><text fill="#000000" font-family="sans-serif" font-size="14" lengthAdjust="spacing" textLength="110" x="107" y="1051.1018">fecha: LocalDate</text><rect fill="none" height="6" style="stroke:#C82930;stroke-width:1.0;" width="6" x="95" y="1063.2377"/><text fill="#000000" font-family="sans-serif" font-size="14" lengthAdjust="spacing" textLength="106" x="107" y="1070.1697">hora: LocalTime</text><rect fill="none" height="6" style="stroke:#C82930;stroke-width:1.0;" width="6" x="95" y="1082.3056"/><text fill="#000000" font-family="sans-serif" font-size="14" lengthAdjust="spacing" textLength="83" x="107" y="1089.2376">lugar: Lugar</text><rect fill="none" height="6" style="stroke:#C82930;stroke-width:1.0;" width="6" x="95" y="1101.3735"/><text fill="#000000" font-family="sans-serif" font-size="14" lengthAdjust="spacing" textLength="138" x="107" y="1108.3055">artistas: List&lt;String&gt;</text><rect fill="none" height="6" style="stroke:#C82930;stroke-width:1.0;" width="6" x="95" y="1120.4415"/><text fill="#000000" font-family="sans-serif" font-size="14" lengthAdjust="spacing" textLength="138" x="107" y="1127.3734">Boletos: List&lt;Boleto&gt;</text><line style="stroke:#181818;stroke-width:0.5;" x1="88" x2="508" y1="1135.4754" y2="1135.4754"/><ellipse cx="98" cy="1150.5094" fill="#84BE84" rx="3" ry="3" style="stroke:#038048;stroke-width:1.0;"/><text fill="#000000" font-family="sans-serif" font-size="14" lengthAdjust="spacing" textLength="396" x="107" y="1154.4414">Concierto(String, LocalDate, LocalTime, Lugar, List&lt;String&gt;)</text><ellipse cx="98" cy="1169.5773" fill="#84BE84" rx="3" ry="3" style="stroke:#038048;stroke-width:1.0;"/><text fill="#000000" font-family="sans-serif" font-size="14" lengthAdjust="spacing" textLength="134" x="107" y="1173.5093">getNombre(): String</text><ellipse cx="98" cy="1188.6452" fill="#84BE84" rx="3" ry="3" style="stroke:#038048;stroke-width:1.0;"/><text fill="#000000" font-family="sans-serif" font-size="14" lengthAdjust="spacing" textLength="142" x="107" y="1192.5772">getFecha(): LocalDate</text><ellipse cx="98" cy="1207.7131" fill="#84BE84" rx="3" ry="3" style="stroke:#038048;stroke-width:1.0;"/><text fill="#000000" font-family="sans-serif" font-size="14" lengthAdjust="spacing" textLength="169" x="107" y="1211.6451">getArtistas(): List&lt;String&gt;</text><ellipse cx="98" cy="1226.781" fill="#84BE84" rx="3" ry="3" style="stroke:#038048;stroke-width:1.0;"/><text fill="#000000" font-family="sans-serif" font-size="14" lengthAdjust="spacing" textLength="116" x="107" y="1230.713">getLugar(): Lugar</text><ellipse cx="98" cy="1245.849" fill="#84BE84" rx="3" ry="3" style="stroke:#038048;stroke-width:1.0;"/><text fill="#000000" font-family="sans-serif" font-size="14" lengthAdjust="spacing" textLength="247" x="107" y="1249.7809">getBoletosDisponibles(): List&lt;Boleto&gt;</text><ellipse cx="98" cy="1264.9169" fill="#84BE84" rx="3" ry="3" style="stroke:#038048;stroke-width:1.0;"/><text fill="#000000" font-family="sans-serif" font-size="14" lengthAdjust="spacing" textLength="111" x="107" y="1268.8489">toString(): String</text></g><!--class EstadoBoleto--><g id="elem_EstadoBoleto"><rect codeLine="28" fill="#F1F1F1" height="86.1358" id="EstadoBoleto" rx="2.5" ry="2.5" style="stroke:#181818;stroke-width:0.5;" width="119" x="821.5" y="711.0679"/><ellipse cx="836.5" cy="727.0679" fill="#EB937F" rx="11" ry="11" style="stroke:#181818;stroke-width:1.0;"/><path d="M840.6094,733.0679 L832.8906,733.0679 L832.8906,720.6773 L840.6094,720.6773 L840.6094,722.8335 L835.3438,722.8335 L835.3438,725.5054 L840.1094,725.5054 L840.1094,727.6617 L835.3438,727.6617 L835.3438,730.9117 L840.6094,730.9117 L840.6094,733.0679 Z " fill="#000000"/><text fill="#000000" font-family="sans-serif" font-size="14" lengthAdjust="spacing" textLength="87" x="850.5" y="732.4999">EstadoBoleto</text><line style="stroke:#181818;stroke-width:0.5;" x1="822.5" x2="939.5" y1="743.0679" y2="743.0679"/><text fill="#000000" font-family="sans-serif" font-size="14" lengthAdjust="spacing" textLength="76" x="827.5" y="762.0339">Disponible,</text><text fill="#000000" font-family="sans-serif" font-size="14" lengthAdjust="spacing" textLength="55" x="827.5" y="781.1018">Vendido</text><line style="stroke:#181818;stroke-width:0.5;" x1="822.5" x2="939.5" y1="789.2038" y2="789.2038"/></g><!--class Boleto--><g id="elem_Boleto"><rect codeLine="33" fill="#F1F1F1" height="295.8829" id="Boleto" rx="2.5" ry="2.5" style="stroke:#181818;stroke-width:0.5;" width="374" x="390" y="606.0679"/><ellipse cx="551.75" cy="622.0679" fill="#ADD1B2" rx="11" ry="11" style="stroke:#181818;stroke-width:1.0;"/><path d="M554.7188,627.7085 Q554.1406,628.0054 553.5,628.146 Q552.8594,628.3023 552.1563,628.3023 Q549.6563,628.3023 548.3281,626.6617 Q547.0156,625.0054 547.0156,621.8804 Q547.0156,618.7554 548.3281,617.0992 Q549.6563,615.4429 552.1563,615.4429 Q552.8594,615.4429 553.5,615.5992 Q554.1563,615.7554 554.7188,616.0523 L554.7188,618.771 Q554.0938,618.1929 553.5,617.9273 Q552.9063,617.646 552.2813,617.646 Q550.9375,617.646 550.25,618.7242 Q549.5625,619.7867 549.5625,621.8804 Q549.5625,623.9742 550.25,625.0523 Q550.9375,626.1148 552.2813,626.1148 Q552.9063,626.1148 553.5,625.8492 Q554.0938,625.5679 554.7188,624.9898 L554.7188,627.7085 Z " fill="#000000"/><text fill="#000000" font-family="sans-serif" font-size="14" lengthAdjust="spacing" textLength="42" x="572.25" y="627.4999">Boleto</text><line style="stroke:#181818;stroke-width:0.5;" x1="391" x2="763" y1="638.0679" y2="638.0679"/><rect fill="none" height="6" style="stroke:#C82930;stroke-width:1.0;" width="6" x="398" y="650.1019"/><text fill="#000000" font-family="sans-serif" font-size="14" lengthAdjust="spacing" textLength="39" x="410" y="657.0339">id: int</text><rect fill="none" height="6" style="stroke:#C82930;stroke-width:1.0;" width="6" x="398" y="669.1698"/><text fill="#000000" font-family="sans-serif" font-size="14" lengthAdjust="spacing" textLength="97" x="410" y="676.1018">precio: double</text><rect fill="none" height="6" style="stroke:#C82930;stroke-width:1.0;" width="6" x="398" y="688.2377"/><text fill="#000000" font-family="sans-serif" font-size="14" lengthAdjust="spacing" textLength="140" x="410" y="695.1697">estado: EstadoBoleto</text><rect fill="none" height="6" style="stroke:#C82930;stroke-width:1.0;" width="6" x="398" y="707.3056"/><text fill="#000000" font-family="sans-serif" font-size="14" lengthAdjust="spacing" textLength="107" x="410" y="714.2376">asiento: Asiento</text><rect fill="none" height="6" style="stroke:#C82930;stroke-width:1.0;" width="6" x="398" y="726.3735"/><text fill="#000000" font-family="sans-serif" font-size="14" lengthAdjust="spacing" textLength="134" x="410" y="733.3055">concierto: Concierto</text><line style="stroke:#181818;stroke-width:0.5;" x1="391" x2="763" y1="741.4075" y2="741.4075"/><ellipse cx="401" cy="756.4415" fill="#84BE84" rx="3" ry="3" style="stroke:#038048;stroke-width:1.0;"/><text fill="#000000" font-family="sans-serif" font-size="14" lengthAdjust="spacing" textLength="348" x="410" y="760.3734">Boleto(int, double, EstadoBoleto, Asiento, Concierto)</text><ellipse cx="401" cy="775.5094" fill="#84BE84" rx="3" ry="3" style="stroke:#038048;stroke-width:1.0;"/><text fill="#000000" font-family="sans-serif" font-size="14" lengthAdjust="spacing" textLength="70" x="410" y="779.4414">getId(): int</text><ellipse cx="401" cy="794.5773" fill="#84BE84" rx="3" ry="3" style="stroke:#038048;stroke-width:1.0;"/><text fill="#000000" font-family="sans-serif" font-size="14" lengthAdjust="spacing" textLength="126" x="410" y="798.5093">getPrecio(): double</text><ellipse cx="401" cy="813.6452" fill="#84BE84" rx="3" ry="3" style="stroke:#038048;stroke-width:1.0;"/><text fill="#000000" font-family="sans-serif" font-size="14" lengthAdjust="spacing" textLength="170" x="410" y="817.5772">getEstado(): EstadoBoleto</text><ellipse cx="401" cy="832.7131" fill="#84BE84" rx="3" ry="3" style="stroke:#038048;stroke-width:1.0;"/><text fill="#000000" font-family="sans-serif" font-size="14" lengthAdjust="spacing" textLength="138" x="410" y="836.6451">getAsiento(): Asiento</text><ellipse cx="401" cy="851.781" fill="#84BE84" rx="3" ry="3" style="stroke:#038048;stroke-width:1.0;"/><text fill="#000000" font-family="sans-serif" font-size="14" lengthAdjust="spacing" textLength="166" x="410" y="855.713">getConcierto(): Concierto</text><ellipse cx="401" cy="870.849" fill="#84BE84" rx="3" ry="3" style="stroke:#038048;stroke-width:1.0;"/><text fill="#000000" font-family="sans-serif" font-size="14" lengthAdjust="spacing" textLength="196" x="410" y="874.7809">setEstado(EstadoBoleto): void</text><ellipse cx="401" cy="889.9169" fill="#84BE84" rx="3" ry="3" style="stroke:#038048;stroke-width:1.0;"/><text fill="#000000" font-family="sans-serif" font-size="14" lengthAdjust="spacing" textLength="111" x="410" y="893.8489">toString(): String</text></g><!--class Lugar--><g id="elem_Lugar"><rect codeLine="49" fill="#F1F1F1" height="200.5433" id="Lugar" rx="2.5" ry="2.5" style="stroke:#181818;stroke-width:0.5;" width="189" x="203.5" y="1356.0679"/><ellipse cx="274.25" cy="1372.0679" fill="#ADD1B2" rx="11" ry="11" style="stroke:#181818;stroke-width:1.0;"/><path d="M277.2188,1377.7085 Q276.6406,1378.0054 276,1378.146 Q275.3594,1378.3023 274.6563,1378.3023 Q272.1563,1378.3023 270.8281,1376.6617 Q269.5156,1375.0054 269.5156,1371.8804 Q269.5156,1368.7554 270.8281,1367.0992 Q272.1563,1365.4429 274.6563,1365.4429 Q275.3594,1365.4429 276,1365.5992 Q276.6563,1365.7554 277.2188,1366.0523 L277.2188,1368.771 Q276.5938,1368.1929 276,1367.9273 Q275.4063,1367.646 274.7813,1367.646 Q273.4375,1367.646 272.75,1368.7242 Q272.0625,1369.7867 272.0625,1371.8804 Q272.0625,1373.9742 272.75,1375.0523 Q273.4375,1376.1148 274.7813,1376.1148 Q275.4063,1376.1148 276,1375.8492 Q276.5938,1375.5679 277.2188,1374.9898 L277.2188,1377.7085 Z " fill="#000000"/><text fill="#000000" font-family="sans-serif" font-size="14" lengthAdjust="spacing" textLength="39" x="294.75" y="1377.4999">Lugar</text><line style="stroke:#181818;stroke-width:0.5;" x1="204.5" x2="391.5" y1="1388.0679" y2="1388.0679"/><rect fill="none" height="6" style="stroke:#C82930;stroke-width:1.0;" width="6" x="211.5" y="1400.1019"/><text fill="#000000" font-family="sans-serif" font-size="14" lengthAdjust="spacing" textLength="102" x="223.5" y="1407.0339">nombre: String</text><rect fill="none" height="6" style="stroke:#C82930;stroke-width:1.0;" width="6" x="211.5" y="1419.1698"/><text fill="#000000" font-family="sans-serif" font-size="14" lengthAdjust="spacing" textLength="111" x="223.5" y="1426.1018">direccion: String</text><rect fill="none" height="6" style="stroke:#C82930;stroke-width:1.0;" width="6" x="211.5" y="1438.2377"/><text fill="#000000" font-family="sans-serif" font-size="14" lengthAdjust="spacing" textLength="95" x="223.5" y="1445.1697">capacidad: int</text><line style="stroke:#181818;stroke-width:0.5;" x1="204.5" x2="391.5" y1="1453.2717" y2="1453.2717"/><ellipse cx="214.5" cy="1468.3056" fill="#84BE84" rx="3" ry="3" style="stroke:#038048;stroke-width:1.0;"/><text fill="#000000" font-family="sans-serif" font-size="14" lengthAdjust="spacing" textLength="163" x="223.5" y="1472.2376">Lugar(String, String, int)</text><ellipse cx="214.5" cy="1487.3735" fill="#84BE84" rx="3" ry="3" style="stroke:#038048;stroke-width:1.0;"/><text fill="#000000" font-family="sans-serif" font-size="14" lengthAdjust="spacing" textLength="134" x="223.5" y="1491.3055">getNombre(): String</text><ellipse cx="214.5" cy="1506.4415" fill="#84BE84" rx="3" ry="3" style="stroke:#038048;stroke-width:1.0;"/><text fill="#000000" font-family="sans-serif" font-size="14" lengthAdjust="spacing" textLength="142" x="223.5" y="1510.3734">getDireccion(): String</text><ellipse cx="214.5" cy="1525.5094" fill="#84BE84" rx="3" ry="3" style="stroke:#038048;stroke-width:1.0;"/><text fill="#000000" font-family="sans-serif" font-size="14" lengthAdjust="spacing" textLength="127" x="223.5" y="1529.4414">getCapacidad(): int</text><ellipse cx="214.5" cy="1544.5773" fill="#84BE84" rx="3" ry="3" style="stroke:#038048;stroke-width:1.0;"/><text fill="#000000" font-family="sans-serif" font-size="14" lengthAdjust="spacing" textLength="111" x="223.5" y="1548.5093">toString(): String</text></g><!--class TipoAsiento--><g id="elem_TipoAsiento"><rect codeLine="60" fill="#F1F1F1" height="86.1358" id="TipoAsiento" rx="2.5" ry="2.5" style="stroke:#181818;stroke-width:0.5;" width="111" x="839.5" y="1086.0679"/><ellipse cx="854.5" cy="1102.0679" fill="#EB937F" rx="11" ry="11" style="stroke:#181818;stroke-width:1.0;"/><path d="M858.6094,1108.0679 L850.8906,1108.0679 L850.8906,1095.6773 L858.6094,1095.6773 L858.6094,1097.8335 L853.3438,1097.8335 L853.3438,1100.5054 L858.1094,1100.5054 L858.1094,1102.6617 L853.3438,1102.6617 L853.3438,1105.9117 L858.6094,1105.9117 L858.6094,1108.0679 Z " fill="#000000"/><text fill="#000000" font-family="sans-serif" font-size="14" lengthAdjust="spacing" textLength="79" x="868.5" y="1107.4999">TipoAsiento</text><line style="stroke:#181818;stroke-width:0.5;" x1="840.5" x2="949.5" y1="1118.0679" y2="1118.0679"/><text fill="#000000" font-family="sans-serif" font-size="14" lengthAdjust="spacing" textLength="25" x="845.5" y="1137.0339">VIP,</text><text fill="#000000" font-family="sans-serif" font-size="14" lengthAdjust="spacing" textLength="53" x="845.5" y="1156.1018">General</text><line style="stroke:#181818;stroke-width:0.5;" x1="840.5" x2="949.5" y1="1164.2038" y2="1164.2038"/></g><!--class Asiento--><g id="elem_Asiento"><rect codeLine="65" fill="#F1F1F1" height="200.5433" id="Asiento" rx="2.5" ry="2.5" style="stroke:#181818;stroke-width:0.5;" width="238" x="544" y="1028.5679"/><ellipse cx="633.75" cy="1044.5679" fill="#ADD1B2" rx="11" ry="11" style="stroke:#181818;stroke-width:1.0;"/><path d="M636.7188,1050.2085 Q636.1406,1050.5054 635.5,1050.646 Q634.8594,1050.8023 634.1563,1050.8023 Q631.6563,1050.8023 630.3281,1049.1617 Q629.0156,1047.5054 629.0156,1044.3804 Q629.0156,1041.2554 630.3281,1039.5992 Q631.6563,1037.9429 634.1563,1037.9429 Q634.8594,1037.9429 635.5,1038.0992 Q636.1563,1038.2554 636.7188,1038.5523 L636.7188,1041.271 Q636.0938,1040.6929 635.5,1040.4273 Q634.9063,1040.146 634.2813,1040.146 Q632.9375,1040.146 632.25,1041.2242 Q631.5625,1042.2867 631.5625,1044.3804 Q631.5625,1046.4742 632.25,1047.5523 Q632.9375,1048.6148 634.2813,1048.6148 Q634.9063,1048.6148 635.5,1048.3492 Q636.0938,1048.0679 636.7188,1047.4898 L636.7188,1050.2085 Z " fill="#000000"/><text fill="#000000" font-family="sans-serif" font-size="14" lengthAdjust="spacing" textLength="50" x="654.25" y="1049.9999">Asiento</text><line style="stroke:#181818;stroke-width:0.5;" x1="545" x2="781" y1="1060.5679" y2="1060.5679"/><rect fill="none" height="6" style="stroke:#C82930;stroke-width:1.0;" width="6" x="552" y="1072.6019"/><text fill="#000000" font-family="sans-serif" font-size="14" lengthAdjust="spacing" textLength="79" x="564" y="1079.5339">numero: int</text><rect fill="none" height="6" style="stroke:#C82930;stroke-width:1.0;" width="6" x="552" y="1091.6698"/><text fill="#000000" font-family="sans-serif" font-size="14" lengthAdjust="spacing" textLength="70" x="564" y="1098.6018">fila: String</text><rect fill="none" height="6" style="stroke:#C82930;stroke-width:1.0;" width="6" x="552" y="1110.7377"/><text fill="#000000" font-family="sans-serif" font-size="14" lengthAdjust="spacing" textLength="113" x="564" y="1117.6697">tipo: TipoAsiento</text><line style="stroke:#181818;stroke-width:0.5;" x1="545" x2="781" y1="1125.7717" y2="1125.7717"/><ellipse cx="555" cy="1140.8056" fill="#84BE84" rx="3" ry="3" style="stroke:#038048;stroke-width:1.0;"/><text fill="#000000" font-family="sans-serif" font-size="14" lengthAdjust="spacing" textLength="212" x="564" y="1144.7376">Asiento(int, String, TipoAsiento)</text><ellipse cx="555" cy="1159.8735" fill="#84BE84" rx="3" ry="3" style="stroke:#038048;stroke-width:1.0;"/><text fill="#000000" font-family="sans-serif" font-size="14" lengthAdjust="spacing" textLength="111" x="564" y="1163.8055">getNumero(): int</text><ellipse cx="555" cy="1178.9415" fill="#84BE84" rx="3" ry="3" style="stroke:#038048;stroke-width:1.0;"/><text fill="#000000" font-family="sans-serif" font-size="14" lengthAdjust="spacing" textLength="102" x="564" y="1182.8734">getFila(): String</text><ellipse cx="555" cy="1198.0094" fill="#84BE84" rx="3" ry="3" style="stroke:#038048;stroke-width:1.0;"/><text fill="#000000" font-family="sans-serif" font-size="14" lengthAdjust="spacing" textLength="108" x="564" y="1201.9414">getTipo(): String</text><ellipse cx="555" cy="1217.0773" fill="#84BE84" rx="3" ry="3" style="stroke:#038048;stroke-width:1.0;"/><text fill="#000000" font-family="sans-serif" font-size="14" lengthAdjust="spacing" textLength="111" x="564" y="1221.0093">toString(): String</text></g><!--class Compra--><g id="elem_Compra"><rect codeLine="77" fill="#F1F1F1" height="238.6792" id="Compra" rx="2.5" ry="2.5" style="stroke:#181818;stroke-width:0.5;" width="301" x="426.5" y="288.0679"/><ellipse cx="546.25" cy="304.0679" fill="#ADD1B2" rx="11" ry="11" style="stroke:#181818;stroke-width:1.0;"/><path d="M549.2188,309.7085 Q548.6406,310.0054 548,310.146 Q547.3594,310.3023 546.6563,310.3023 Q544.1563,310.3023 542.8281,308.6617 Q541.5156,307.0054 541.5156,303.8804 Q541.5156,300.7554 542.8281,299.0992 Q544.1563,297.4429 546.6563,297.4429 Q547.3594,297.4429 548,297.5992 Q548.6563,297.7554 549.2188,298.0523 L549.2188,300.771 Q548.5938,300.1929 548,299.9273 Q547.4063,299.646 546.7813,299.646 Q545.4375,299.646 544.75,300.7242 Q544.0625,301.7867 544.0625,303.8804 Q544.0625,305.9742 544.75,307.0523 Q545.4375,308.1148 546.7813,308.1148 Q547.4063,308.1148 548,307.8492 Q548.5938,307.5679 549.2188,306.9898 L549.2188,309.7085 Z " fill="#000000"/><text fill="#000000" font-family="sans-serif" font-size="14" lengthAdjust="spacing" textLength="53" x="566.75" y="309.4999">Compra</text><line style="stroke:#181818;stroke-width:0.5;" x1="427.5" x2="726.5" y1="320.0679" y2="320.0679"/><rect fill="none" height="6" style="stroke:#C82930;stroke-width:1.0;" width="6" x="434.5" y="332.1019"/><text fill="#000000" font-family="sans-serif" font-size="14" lengthAdjust="spacing" textLength="111" x="446.5" y="339.0339">usuario: Usuario</text><rect fill="none" height="6" style="stroke:#C82930;stroke-width:1.0;" width="6" x="434.5" y="351.1698"/><text fill="#000000" font-family="sans-serif" font-size="14" lengthAdjust="spacing" textLength="215" x="446.5" y="358.1018">boletosComprados: List&lt;Boleto&gt;</text><rect fill="none" height="6" style="stroke:#C82930;stroke-width:1.0;" width="6" x="434.5" y="370.2377"/><text fill="#000000" font-family="sans-serif" font-size="14" lengthAdjust="spacing" textLength="110" x="446.5" y="377.1697">fecha: LocalDate</text><rect fill="none" height="6" style="stroke:#C82930;stroke-width:1.0;" width="6" x="434.5" y="389.3056"/><text fill="#000000" font-family="sans-serif" font-size="14" lengthAdjust="spacing" textLength="85" x="446.5" y="396.2376">total: double</text><line style="stroke:#181818;stroke-width:0.5;" x1="427.5" x2="726.5" y1="404.3396" y2="404.3396"/><ellipse cx="437.5" cy="419.3735" fill="#84BE84" rx="3" ry="3" style="stroke:#038048;stroke-width:1.0;"/><text fill="#000000" font-family="sans-serif" font-size="14" lengthAdjust="spacing" textLength="275" x="446.5" y="423.3055">Compra(Usuario, List&lt;Boleto&gt;, LocalDate)</text><ellipse cx="437.5" cy="438.4415" fill="#84BE84" rx="3" ry="3" style="stroke:#038048;stroke-width:1.0;"/><text fill="#000000" font-family="sans-serif" font-size="14" lengthAdjust="spacing" textLength="131" x="446.5" y="442.3734">getUsuario(): String</text><ellipse cx="437.5" cy="457.5094" fill="#84BE84" rx="3" ry="3" style="stroke:#038048;stroke-width:1.0;"/><text fill="#000000" font-family="sans-serif" font-size="14" lengthAdjust="spacing" textLength="252" x="446.5" y="461.4414">getBoletosComprados(): List&lt;Boletos&gt;</text><ellipse cx="437.5" cy="476.5773" fill="#84BE84" rx="3" ry="3" style="stroke:#038048;stroke-width:1.0;"/><text fill="#000000" font-family="sans-serif" font-size="14" lengthAdjust="spacing" textLength="118" x="446.5" y="480.5093">getTotal(): double</text><ellipse cx="437.5" cy="495.6452" fill="#84BE84" rx="3" ry="3" style="stroke:#038048;stroke-width:1.0;"/><text fill="#000000" font-family="sans-serif" font-size="14" lengthAdjust="spacing" textLength="142" x="446.5" y="499.5772">getFecha(): LocalDate</text><ellipse cx="437.5" cy="514.7131" fill="#84BE84" rx="3" ry="3" style="stroke:#038048;stroke-width:1.0;"/><text fill="#000000" font-family="sans-serif" font-size="14" lengthAdjust="spacing" textLength="111" x="446.5" y="518.6451">toString(): String</text></g><!--class SistemaVentas--><g id="elem_SistemaVentas"><rect codeLine="90" fill="#F1F1F1" height="124.2717" id="SistemaVentas" rx="2.5" ry="2.5" style="stroke:#181818;stroke-width:0.5;" width="582" x="7" y="66.0679"/><ellipse cx="244.75" cy="82.0679" fill="#ADD1B2" rx="11" ry="11" style="stroke:#181818;stroke-width:1.0;"/><path d="M247.7188,87.7085 Q247.1406,88.0054 246.5,88.146 Q245.8594,88.3023 245.1563,88.3023 Q242.6563,88.3023 241.3281,86.6617 Q240.0156,85.0054 240.0156,81.8804 Q240.0156,78.7554 241.3281,77.0992 Q242.6563,75.4429 245.1563,75.4429 Q245.8594,75.4429 246.5,75.5992 Q247.1563,75.7554 247.7188,76.0523 L247.7188,78.771 Q247.0938,78.1929 246.5,77.9273 Q245.9063,77.646 245.2813,77.646 Q243.9375,77.646 243.25,78.7242 Q242.5625,79.7867 242.5625,81.8804 Q242.5625,83.9742 243.25,85.0523 Q243.9375,86.1148 245.2813,86.1148 Q245.9063,86.1148 246.5,85.8492 Q247.0938,85.5679 247.7188,84.9898 L247.7188,87.7085 Z " fill="#000000"/><text fill="#000000" font-family="sans-serif" font-size="14" lengthAdjust="spacing" textLength="98" x="265.25" y="87.4999">SistemaVentas</text><line style="stroke:#181818;stroke-width:0.5;" x1="8" x2="588" y1="98.0679" y2="98.0679"/><line style="stroke:#181818;stroke-width:0.5;" x1="8" x2="588" y1="106.0679" y2="106.0679"/><ellipse cx="18" cy="121.1019" fill="#84BE84" rx="3" ry="3" style="stroke:#038048;stroke-width:1.0;"/><text fill="#000000" font-family="sans-serif" font-size="14" lengthAdjust="spacing" textLength="556" x="27" y="125.0339">buscarConciertos(nombre: String, fecha: LocalDate, artista: String): List&lt;Concierto&gt;</text><ellipse cx="18" cy="140.1698" fill="#84BE84" rx="3" ry="3" style="stroke:#038048;stroke-width:1.0;"/><text fill="#000000" font-family="sans-serif" font-size="14" lengthAdjust="spacing" textLength="393" x="27" y="144.1018">seleccionarAsiento(Concierto, numeroAsiento: int): Asiento</text><ellipse cx="18" cy="159.2377" fill="#84BE84" rx="3" ry="3" style="stroke:#038048;stroke-width:1.0;"/><text fill="#000000" font-family="sans-serif" font-size="14" lengthAdjust="spacing" textLength="396" x="27" y="163.1697">comprarBoleto(usr: Usuario, boletos: List&lt;Boleto&gt;): Compra</text><ellipse cx="18" cy="178.3056" fill="#84BE84" rx="3" ry="3" style="stroke:#038048;stroke-width:1.0;"/><text fill="#000000" font-family="sans-serif" font-size="14" lengthAdjust="spacing" textLength="310" x="27" y="182.2376">confirmacionCompra(compra: Compra): String</text></g><!--link Boleto to EstadoBoleto--><g id="link_Boleto_EstadoBoleto"><path codeLine="97" d="M764.34,754.0679 C784.74,754.0679 798.25,754.0679 815.27,754.0679 " fill="none" id="Boleto-to-EstadoBoleto" style="stroke:#181818;stroke-width:1.0;"/><polygon fill="#181818" points="821.27,754.0679,812.27,750.0679,816.27,754.0679,812.27,758.0679,821.27,754.0679" style="stroke:#181818;stroke-width:1.0;"/><text fill="#000000" font-family="sans-serif" font-size="13" lengthAdjust="spacing" textLength="21" x="782.25" y="746.9649">usa</text></g><!--link Asiento to TipoAsiento--><g id="link_Asiento_TipoAsiento"><path codeLine="98" d="M782.06,1129.0679 C802.08,1129.0679 815.99,1129.0679 833.38,1129.0679 " fill="none" id="Asiento-to-TipoAsiento" style="stroke:#181818;stroke-width:1.0;"/><polygon fill="#181818" points="839.38,1129.0679,830.38,1125.0679,834.38,1129.0679,830.38,1133.0679,839.38,1129.0679" style="stroke:#181818;stroke-width:1.0;"/><text fill="#000000" font-family="sans-serif" font-size="13" lengthAdjust="spacing" textLength="21" x="800.25" y="1121.9649">usa</text></g><!--link SistemaVentas to Compra--><g id="link_SistemaVentas_Compra"><path codeLine="101" d="M359.57,190.3079 C388.46,219.0379 419.6561,250.0666 453.4761,283.7066 " fill="none" id="SistemaVentas-to-Compra" style="stroke:#181818;stroke-width:1.0;stroke-dasharray:7.0,7.0;"/><polygon fill="#181818" points="457.73,287.9379,454.17,278.755,454.185,284.4118,448.5282,284.4269,457.73,287.9379" style="stroke:#181818;stroke-width:1.0;"/><text fill="#000000" font-family="sans-serif" font-size="13" lengthAdjust="spacing" textLength="21" x="422" y="253.9649">usa</text></g><!--link SistemaVentas to Concierto--><g id="link_SistemaVentas_Concierto"><path codeLine="102" d="M298,190.4279 C298,345.8079 298,752.1779 298,974.7179 " fill="none" id="SistemaVentas-to-Concierto" style="stroke:#181818;stroke-width:1.0;stroke-dasharray:7.0,7.0;"/><polygon fill="#181818" points="298,980.7179,302,971.7179,298,975.7179,294,971.7179,298,980.7179" style="stroke:#181818;stroke-width:1.0;"/><text fill="#000000" font-family="sans-serif" font-size="13" lengthAdjust="spacing" textLength="51" x="299" y="571.9649">consulta</text></g><!--link Usuario to Compra--><g id="link_Usuario_Compra"><path codeLine="104" d="M690.01,209.3279 C675.93,233.9079 666.1063,251.0562 650.8863,277.6162 " fill="none" id="Usuario-to-Compra" style="stroke:#181818;stroke-width:1.0;"/><polygon fill="none" points="644.92,288.0279,651.3737,284.8109,650.8863,277.6162,644.4326,280.8333,644.92,288.0279" style="stroke:#181818;stroke-width:1.0;"/><text fill="#000000" font-family="sans-serif" font-size="13" lengthAdjust="spacing" textLength="46" x="672" y="253.9649">registra</text><text fill="#000000" font-family="sans-serif" font-size="13" lengthAdjust="spacing" textLength="20" x="665.0234" y="231.2325">1..*</text><text fill="#000000" font-family="sans-serif" font-size="13" lengthAdjust="spacing" textLength="20" x="628.8115" y="276.3567">1..*</text></g><!--link Compra to Boleto--><g id="link_Compra_Boleto"><path codeLine="105" d="M577,527.1279 C577,552.5279 577,573.6579 577,599.9879 " fill="none" id="Compra-to-Boleto" style="stroke:#181818;stroke-width:1.0;"/><polygon fill="#181818" points="577,605.9879,581,596.9879,577,600.9879,573,596.9879,577,605.9879" style="stroke:#181818;stroke-width:1.0;"/><text fill="#000000" font-family="sans-serif" font-size="13" lengthAdjust="spacing" textLength="30" x="578" y="571.9649">tiene</text><text fill="#000000" font-family="sans-serif" font-size="13" lengthAdjust="spacing" textLength="7" x="569.7977" y="548.4581">1</text><text fill="#000000" font-family="sans-serif" font-size="13" lengthAdjust="spacing" textLength="20" x="556.4531" y="594.3445">1..*</text></g><!--link Boleto to Concierto--><g id="link_Boleto_Concierto"><path codeLine="106" d="M466.93,902.2179 C447.58,928.0979 434.6181,945.419 415.2581,971.299 " fill="none" id="Boleto-to-Concierto" style="stroke:#181818;stroke-width:1.0;"/><polygon fill="#181818" points="408.07,980.9079,414.867,978.4995,415.2581,971.299,408.4611,973.7074,408.07,980.9079" style="stroke:#181818;stroke-width:1.0;"/><text fill="#000000" font-family="sans-serif" font-size="13" lengthAdjust="spacing" textLength="75" x="439" y="946.9649">son parte de</text><text fill="#000000" font-family="sans-serif" font-size="13" lengthAdjust="spacing" textLength="20" x="441.1141" y="923.7226">1..*</text><text fill="#000000" font-family="sans-serif" font-size="13" lengthAdjust="spacing" textLength="7" x="406.898" y="969.2601">1</text></g><!--link Concierto to Lugar--><g id="link_Concierto_Lugar"><path codeLine="107" d="M298,1277.1079 C298,1303.7279 298,1318.9079 298,1343.7779 " fill="none" id="Concierto-to-Lugar" style="stroke:#181818;stroke-width:1.0;"/><polygon fill="none" points="298,1355.7779,302,1349.7779,298,1343.7779,294,1349.7779,298,1355.7779" style="stroke:#181818;stroke-width:1.0;"/><text fill="#000000" font-family="sans-serif" font-size="13" lengthAdjust="spacing" textLength="49" x="299" y="1321.9649">necesita</text><text fill="#000000" font-family="sans-serif" font-size="13" lengthAdjust="spacing" textLength="20" x="277.5156" y="1298.6073">1..*</text><text fill="#000000" font-family="sans-serif" font-size="13" lengthAdjust="spacing" textLength="7" x="290.732" y="1344.3519">1</text></g><!--link Boleto to Asiento--><g id="link_Boleto_Asiento"><path codeLine="108" d="M610.93,902.2179 C620.68,944.4979 629.721,983.7515 638.651,1022.4515 " fill="none" id="Boleto-to-Asiento" style="stroke:#181818;stroke-width:1.0;"/><polygon fill="#181818" points="640,1028.2979,641.874,1018.629,638.8758,1023.4259,634.0788,1020.4277,640,1028.2979" style="stroke:#181818;stroke-width:1.0;"/><text fill="#000000" font-family="sans-serif" font-size="13" lengthAdjust="spacing" textLength="30" x="621" y="946.9649">tiene</text><text fill="#000000" font-family="sans-serif" font-size="13" lengthAdjust="spacing" textLength="7" x="605.404" y="923.7226">1</text><text fill="#000000" font-family="sans-serif" font-size="13" lengthAdjust="spacing" textLength="7" x="630.9711" y="1016.8735">1</text></g><!--SRC=[ZLLBRjim4Dth58HNJamRw5Oe32HnKWGeYW19iwSbsY4WaGP9TLFqI3r5BzOXXwH8MN7YZQoPuNlpuvCLjkDa9zXHivwHPs4iX-UjwhZb-jzVLbLDnumXFyt0j52_AmA_jLJzNlEQF5ijv15jZTAQgz9cUSSFIfRMLS1QeesIydc5GKTkVtYMvLLvsYfyo-n_OfPtIZQ2QtifpmDltbXDlgk6TJjcELhVb8x65z47OpSScGQhUw25QGijOWQCyFoAk5lq-QQfwC8tTArINgdcH4z7KefCjC3-g1tWU70LENjPatFTX7ozTvgn2_2CtfkATEPGoqwOav9Yt_4HeIXiVXXS3Zsv1zvMOJIEOqIZ_lsLorQqQXnV7hmMRKs4jFXoqhmHi4Qj6k0ushWdg0kYC2KZkBJWki4_SK734EfnJx0AFBi4DXeOQ85A8n0TJuvpUMnTzJ5LPtdosJfhbgzp8AXpd2NjfuKipfzdxbpZ1bsTfMyIS8uASR-KQ3- -D7xo5ovCAw0Sg4TExZixiKQqB1lJ2hTfUg_1_OajtaMQ6TzTv2ewVM7vNiH9XHOIBEtryGctxXkNNBDkh3_4nGuCFTSgMxs3wDX4rG2ypYamdJWzlqQnzYmgwu7dc6xD0n3DrEuGFgU1IGJxasQXd06rjeu2ZjOzNc-CR6SrwnsTjCgohjnhH5a60bf0PK8tbX_r_xpMsqbU4z4neswzk3ncRjXxMdZf0eIl7iWHA2NsRRKVJCDqkcXcMTuCIgRjeIHy6s98J3rXREDjxN3FcOuRaq8emVMxYGBchiv431hV71qqQp0wpPQI_Tmdo0k6EnFFouFGFNCfXD4XP0pBEWJnLOKmPBqjHAicWs5Ll6FWp3OTVLLLD9PiDjl0WFuvRr9eoD8CdGMKK1nPVDbihXTalKv_8vZcHu22-j00RXUsZM4nNmkvyLXDGhlsuHcpKPASO9QSjBnAzf9-WQ9P4yaRRWIacM0ZzOAaPdZY_m00]--></g></svg>