<?xml version="1.0" encoding="us-ascii" standalone="no"?><svg xmlns="http://www.w3.org/2000/svg" xmlns:xlink="http://www.w3.org/1999/xlink" contentStyleType="text/css" height="1404px" preserveAspectRatio="none" style="width:799px;height:1404px;background:#FFFFFF;" version="1.1" viewBox="0 0 799 1404" width="799px" zoomAndPan="magnify"><defs/><g><text fill="#000000" font-family="sans-serif" font-size="14" font-weight="bold" lengthAdjust="spacing" textLength="192" x="296.75" y="24.9659">Diagrama Sistema Boleter&#237;a</text><!--class Usuario--><g id="elem_Usuario"><rect codeLine="3" fill="#F1F1F1" height="143.3396" id="Usuario" rx="2.5" ry="2.5" style="stroke:#181818;stroke-width:0.5;" width="233" x="226.5" y="47.0679"/><ellipse cx="312.75" cy="63.0679" fill="#ADD1B2" rx="11" ry="11" style="stroke:#181818;stroke-width:1.0;"/><path d="M315.7188,68.7085 Q315.1406,69.0054 314.5,69.146 Q313.8594,69.3023 313.1563,69.3023 Q310.6563,69.3023 309.3281,67.6617 Q308.0156,66.0054 308.0156,62.8804 Q308.0156,59.7554 309.3281,58.0992 Q310.6563,56.4429 313.1563,56.4429 Q313.8594,56.4429 314.5,56.5992 Q315.1563,56.7554 315.7188,57.0523 L315.7188,59.771 Q315.0938,59.1929 314.5,58.9273 Q313.9063,58.646 313.2813,58.646 Q311.9375,58.646 311.25,59.7242 Q310.5625,60.7867 310.5625,62.8804 Q310.5625,64.9742 311.25,66.0523 Q311.9375,67.1148 313.2813,67.1148 Q313.9063,67.1148 314.5,66.8492 Q315.0938,66.5679 315.7188,65.9898 L315.7188,68.7085 Z " fill="#000000"/><text fill="#000000" font-family="sans-serif" font-size="14" lengthAdjust="spacing" textLength="52" x="333.25" y="68.4999">Usuario</text><line style="stroke:#181818;stroke-width:0.5;" x1="227.5" x2="458.5" y1="79.0679" y2="79.0679"/><rect fill="none" height="6" style="stroke:#C82930;stroke-width:1.0;" width="6" x="234.5" y="91.1019"/><text fill="#000000" font-family="sans-serif" font-size="14" lengthAdjust="spacing" textLength="102" x="246.5" y="98.0339">nombre: String</text><rect fill="none" height="6" style="stroke:#C82930;stroke-width:1.0;" width="6" x="234.5" y="110.1698"/><text fill="#000000" font-family="sans-serif" font-size="14" lengthAdjust="spacing" textLength="92" x="246.5" y="117.1018">correo: String</text><rect fill="none" height="6" style="stroke:#C82930;stroke-width:1.0;" width="6" x="234.5" y="129.2377"/><text fill="#000000" font-family="sans-serif" font-size="14" lengthAdjust="spacing" textLength="104" x="246.5" y="136.1697">telefono: String</text><line style="stroke:#181818;stroke-width:0.5;" x1="227.5" x2="458.5" y1="144.2717" y2="144.2717"/><ellipse cx="237.5" cy="159.3056" fill="#84BE84" rx="3" ry="3" style="stroke:#038048;stroke-width:1.0;"/><text fill="#000000" font-family="sans-serif" font-size="14" lengthAdjust="spacing" textLength="207" x="246.5" y="163.2376">Usuario(String, String, String)&gt;</text><ellipse cx="237.5" cy="178.3735" fill="#84BE84" rx="3" ry="3" style="stroke:#038048;stroke-width:1.0;"/><text fill="#000000" font-family="sans-serif" font-size="14" lengthAdjust="spacing" textLength="111" x="246.5" y="182.3055">toString(): String</text></g><!--class Concierto--><g id="elem_Concierto"><rect codeLine="11" fill="#F1F1F1" height="200.5433" id="Concierto" rx="2.5" ry="2.5" style="stroke:#181818;stroke-width:0.5;" width="334" x="449" y="974.0679"/><ellipse cx="579.75" cy="990.0679" fill="#ADD1B2" rx="11" ry="11" style="stroke:#181818;stroke-width:1.0;"/><path d="M582.7188,995.7085 Q582.1406,996.0054 581.5,996.146 Q580.8594,996.3023 580.1563,996.3023 Q577.6563,996.3023 576.3281,994.6617 Q575.0156,993.0054 575.0156,989.8804 Q575.0156,986.7554 576.3281,985.0992 Q577.6563,983.4429 580.1563,983.4429 Q580.8594,983.4429 581.5,983.5992 Q582.1563,983.7554 582.7188,984.0523 L582.7188,986.771 Q582.0938,986.1929 581.5,985.9273 Q580.9063,985.646 580.2813,985.646 Q578.9375,985.646 578.25,986.7242 Q577.5625,987.7867 577.5625,989.8804 Q577.5625,991.9742 578.25,993.0523 Q578.9375,994.1148 580.2813,994.1148 Q580.9063,994.1148 581.5,993.8492 Q582.0938,993.5679 582.7188,992.9898 L582.7188,995.7085 Z " fill="#000000"/><text fill="#000000" font-family="sans-serif" font-size="14" lengthAdjust="spacing" textLength="64" x="600.25" y="995.4999">Concierto</text><line style="stroke:#181818;stroke-width:0.5;" x1="450" x2="782" y1="1006.0679" y2="1006.0679"/><rect fill="none" height="6" style="stroke:#C82930;stroke-width:1.0;" width="6" x="457" y="1018.1019"/><text fill="#000000" font-family="sans-serif" font-size="14" lengthAdjust="spacing" textLength="102" x="469" y="1025.0339">nombre: String</text><rect fill="none" height="6" style="stroke:#C82930;stroke-width:1.0;" width="6" x="457" y="1037.1698"/><text fill="#000000" font-family="sans-serif" font-size="14" lengthAdjust="spacing" textLength="110" x="469" y="1044.1018">fecha: LocalDate</text><rect fill="none" height="6" style="stroke:#C82930;stroke-width:1.0;" width="6" x="457" y="1056.2377"/><text fill="#000000" font-family="sans-serif" font-size="14" lengthAdjust="spacing" textLength="106" x="469" y="1063.1697">hora: LocalTime</text><rect fill="none" height="6" style="stroke:#C82930;stroke-width:1.0;" width="6" x="457" y="1075.3056"/><text fill="#000000" font-family="sans-serif" font-size="14" lengthAdjust="spacing" textLength="83" x="469" y="1082.2376">lugar: Lugar</text><rect fill="none" height="6" style="stroke:#C82930;stroke-width:1.0;" width="6" x="457" y="1094.3735"/><text fill="#000000" font-family="sans-serif" font-size="14" lengthAdjust="spacing" textLength="138" x="469" y="1101.3055">artistas: List&lt;String&gt;</text><rect fill="none" height="6" style="stroke:#C82930;stroke-width:1.0;" width="6" x="457" y="1113.4415"/><text fill="#000000" font-family="sans-serif" font-size="14" lengthAdjust="spacing" textLength="138" x="469" y="1120.3734">boletos: List&lt;Boleto&gt;</text><line style="stroke:#181818;stroke-width:0.5;" x1="450" x2="782" y1="1128.4754" y2="1128.4754"/><ellipse cx="460" cy="1143.5094" fill="#84BE84" rx="3" ry="3" style="stroke:#038048;stroke-width:1.0;"/><text fill="#000000" font-family="sans-serif" font-size="14" lengthAdjust="spacing" textLength="308" x="469" y="1147.4414">Concierto(String, LocalDate, LocalTime, Lugar)</text><ellipse cx="460" cy="1162.5773" fill="#84BE84" rx="3" ry="3" style="stroke:#038048;stroke-width:1.0;"/><text fill="#000000" font-family="sans-serif" font-size="14" lengthAdjust="spacing" textLength="111" x="469" y="1166.5093">toString(): String</text></g><!--class Lugar--><g id="elem_Lugar"><rect codeLine="22" fill="#F1F1F1" height="143.3396" id="Lugar" rx="2.5" ry="2.5" style="stroke:#181818;stroke-width:0.5;" width="189" x="521.5" y="1254.0679"/><ellipse cx="592.25" cy="1270.0679" fill="#ADD1B2" rx="11" ry="11" style="stroke:#181818;stroke-width:1.0;"/><path d="M595.2188,1275.7085 Q594.6406,1276.0054 594,1276.146 Q593.3594,1276.3023 592.6563,1276.3023 Q590.1563,1276.3023 588.8281,1274.6617 Q587.5156,1273.0054 587.5156,1269.8804 Q587.5156,1266.7554 588.8281,1265.0992 Q590.1563,1263.4429 592.6563,1263.4429 Q593.3594,1263.4429 594,1263.5992 Q594.6563,1263.7554 595.2188,1264.0523 L595.2188,1266.771 Q594.5938,1266.1929 594,1265.9273 Q593.4063,1265.646 592.7813,1265.646 Q591.4375,1265.646 590.75,1266.7242 Q590.0625,1267.7867 590.0625,1269.8804 Q590.0625,1271.9742 590.75,1273.0523 Q591.4375,1274.1148 592.7813,1274.1148 Q593.4063,1274.1148 594,1273.8492 Q594.5938,1273.5679 595.2188,1272.9898 L595.2188,1275.7085 Z " fill="#000000"/><text fill="#000000" font-family="sans-serif" font-size="14" lengthAdjust="spacing" textLength="39" x="612.75" y="1275.4999">Lugar</text><line style="stroke:#181818;stroke-width:0.5;" x1="522.5" x2="709.5" y1="1286.0679" y2="1286.0679"/><rect fill="none" height="6" style="stroke:#C82930;stroke-width:1.0;" width="6" x="529.5" y="1298.1019"/><text fill="#000000" font-family="sans-serif" font-size="14" lengthAdjust="spacing" textLength="102" x="541.5" y="1305.0339">nombre: String</text><rect fill="none" height="6" style="stroke:#C82930;stroke-width:1.0;" width="6" x="529.5" y="1317.1698"/><text fill="#000000" font-family="sans-serif" font-size="14" lengthAdjust="spacing" textLength="111" x="541.5" y="1324.1018">direccion: String</text><rect fill="none" height="6" style="stroke:#C82930;stroke-width:1.0;" width="6" x="529.5" y="1336.2377"/><text fill="#000000" font-family="sans-serif" font-size="14" lengthAdjust="spacing" textLength="95" x="541.5" y="1343.1697">capacidad: int</text><line style="stroke:#181818;stroke-width:0.5;" x1="522.5" x2="709.5" y1="1351.2717" y2="1351.2717"/><ellipse cx="532.5" cy="1366.3056" fill="#84BE84" rx="3" ry="3" style="stroke:#038048;stroke-width:1.0;"/><text fill="#000000" font-family="sans-serif" font-size="14" lengthAdjust="spacing" textLength="163" x="541.5" y="1370.2376">Lugar(String, String, int)</text><ellipse cx="532.5" cy="1385.3735" fill="#84BE84" rx="3" ry="3" style="stroke:#038048;stroke-width:1.0;"/><text fill="#000000" font-family="sans-serif" font-size="14" lengthAdjust="spacing" textLength="111" x="541.5" y="1389.3055">toString(): String</text></g><!--class TipoAsiento--><g id="elem_TipoAsiento"><rect codeLine="30" fill="#F1F1F1" height="86.1358" id="TipoAsiento" rx="2.5" ry="2.5" style="stroke:#181818;stroke-width:0.5;" width="111" x="302.5" y="1031.5679"/><ellipse cx="317.5" cy="1047.5679" fill="#EB937F" rx="11" ry="11" style="stroke:#181818;stroke-width:1.0;"/><path d="M321.6094,1053.5679 L313.8906,1053.5679 L313.8906,1041.1773 L321.6094,1041.1773 L321.6094,1043.3335 L316.3438,1043.3335 L316.3438,1046.0054 L321.1094,1046.0054 L321.1094,1048.1617 L316.3438,1048.1617 L316.3438,1051.4117 L321.6094,1051.4117 L321.6094,1053.5679 Z " fill="#000000"/><text fill="#000000" font-family="sans-serif" font-size="14" lengthAdjust="spacing" textLength="79" x="331.5" y="1052.9999">TipoAsiento</text><line style="stroke:#181818;stroke-width:0.5;" x1="303.5" x2="412.5" y1="1063.5679" y2="1063.5679"/><text fill="#000000" font-family="sans-serif" font-size="14" lengthAdjust="spacing" textLength="25" x="308.5" y="1082.5339">VIP,</text><text fill="#000000" font-family="sans-serif" font-size="14" lengthAdjust="spacing" textLength="53" x="308.5" y="1101.6018">General</text><line style="stroke:#181818;stroke-width:0.5;" x1="303.5" x2="412.5" y1="1109.7038" y2="1109.7038"/></g><!--class Asiento--><g id="elem_Asiento"><rect codeLine="35" fill="#F1F1F1" height="143.3396" id="Asiento" rx="2.5" ry="2.5" style="stroke:#181818;stroke-width:0.5;" width="238" x="7" y="1003.0679"/><ellipse cx="96.75" cy="1019.0679" fill="#ADD1B2" rx="11" ry="11" style="stroke:#181818;stroke-width:1.0;"/><path d="M99.7188,1024.7085 Q99.1406,1025.0054 98.5,1025.146 Q97.8594,1025.3023 97.1563,1025.3023 Q94.6563,1025.3023 93.3281,1023.6617 Q92.0156,1022.0054 92.0156,1018.8804 Q92.0156,1015.7554 93.3281,1014.0992 Q94.6563,1012.4429 97.1563,1012.4429 Q97.8594,1012.4429 98.5,1012.5992 Q99.1563,1012.7554 99.7188,1013.0523 L99.7188,1015.771 Q99.0938,1015.1929 98.5,1014.9273 Q97.9063,1014.646 97.2813,1014.646 Q95.9375,1014.646 95.25,1015.7242 Q94.5625,1016.7867 94.5625,1018.8804 Q94.5625,1020.9742 95.25,1022.0523 Q95.9375,1023.1148 97.2813,1023.1148 Q97.9063,1023.1148 98.5,1022.8492 Q99.0938,1022.5679 99.7188,1021.9898 L99.7188,1024.7085 Z " fill="#000000"/><text fill="#000000" font-family="sans-serif" font-size="14" lengthAdjust="spacing" textLength="50" x="117.25" y="1024.4999">Asiento</text><line style="stroke:#181818;stroke-width:0.5;" x1="8" x2="244" y1="1035.0679" y2="1035.0679"/><rect fill="none" height="6" style="stroke:#C82930;stroke-width:1.0;" width="6" x="15" y="1047.1019"/><text fill="#000000" font-family="sans-serif" font-size="14" lengthAdjust="spacing" textLength="79" x="27" y="1054.0339">numero: int</text><rect fill="none" height="6" style="stroke:#C82930;stroke-width:1.0;" width="6" x="15" y="1066.1698"/><text fill="#000000" font-family="sans-serif" font-size="14" lengthAdjust="spacing" textLength="70" x="27" y="1073.1018">fila: String</text><rect fill="none" height="6" style="stroke:#C82930;stroke-width:1.0;" width="6" x="15" y="1085.2377"/><text fill="#000000" font-family="sans-serif" font-size="14" lengthAdjust="spacing" textLength="113" x="27" y="1092.1697">tipo: TipoAsiento</text><line style="stroke:#181818;stroke-width:0.5;" x1="8" x2="244" y1="1100.2717" y2="1100.2717"/><ellipse cx="18" cy="1115.3056" fill="#84BE84" rx="3" ry="3" style="stroke:#038048;stroke-width:1.0;"/><text fill="#000000" font-family="sans-serif" font-size="14" lengthAdjust="spacing" textLength="212" x="27" y="1119.2376">Asiento(int, String, TipoAsiento)</text><ellipse cx="18" cy="1134.3735" fill="#84BE84" rx="3" ry="3" style="stroke:#038048;stroke-width:1.0;"/><text fill="#000000" font-family="sans-serif" font-size="14" lengthAdjust="spacing" textLength="111" x="27" y="1138.3055">toString(): String</text></g><!--class EstadoBoleto--><g id="elem_EstadoBoleto"><rect codeLine="43" fill="#F1F1F1" height="86.1358" id="EstadoBoleto" rx="2.5" ry="2.5" style="stroke:#181818;stroke-width:0.5;" width="119" x="443.5" y="751.5679"/><ellipse cx="458.5" cy="767.5679" fill="#EB937F" rx="11" ry="11" style="stroke:#181818;stroke-width:1.0;"/><path d="M462.6094,773.5679 L454.8906,773.5679 L454.8906,761.1773 L462.6094,761.1773 L462.6094,763.3335 L457.3438,763.3335 L457.3438,766.0054 L462.1094,766.0054 L462.1094,768.1617 L457.3438,768.1617 L457.3438,771.4117 L462.6094,771.4117 L462.6094,773.5679 Z " fill="#000000"/><text fill="#000000" font-family="sans-serif" font-size="14" lengthAdjust="spacing" textLength="87" x="472.5" y="772.9999">EstadoBoleto</text><line style="stroke:#181818;stroke-width:0.5;" x1="444.5" x2="561.5" y1="783.5679" y2="783.5679"/><text fill="#000000" font-family="sans-serif" font-size="14" lengthAdjust="spacing" textLength="76" x="449.5" y="802.5339">Disponible,</text><text fill="#000000" font-family="sans-serif" font-size="14" lengthAdjust="spacing" textLength="55" x="449.5" y="821.6018">Vendido</text><line style="stroke:#181818;stroke-width:0.5;" x1="444.5" x2="561.5" y1="829.7038" y2="829.7038"/></g><!--class Boleto--><g id="elem_Boleto"><rect codeLine="48" fill="#F1F1F1" height="200.5433" id="Boleto" rx="2.5" ry="2.5" style="stroke:#181818;stroke-width:0.5;" width="357" x="28.5" y="694.0679"/><ellipse cx="181.75" cy="710.0679" fill="#ADD1B2" rx="11" ry="11" style="stroke:#181818;stroke-width:1.0;"/><path d="M184.7188,715.7085 Q184.1406,716.0054 183.5,716.146 Q182.8594,716.3023 182.1563,716.3023 Q179.6563,716.3023 178.3281,714.6617 Q177.0156,713.0054 177.0156,709.8804 Q177.0156,706.7554 178.3281,705.0992 Q179.6563,703.4429 182.1563,703.4429 Q182.8594,703.4429 183.5,703.5992 Q184.1563,703.7554 184.7188,704.0523 L184.7188,706.771 Q184.0938,706.1929 183.5,705.9273 Q182.9063,705.646 182.2813,705.646 Q180.9375,705.646 180.25,706.7242 Q179.5625,707.7867 179.5625,709.8804 Q179.5625,711.9742 180.25,713.0523 Q180.9375,714.1148 182.2813,714.1148 Q182.9063,714.1148 183.5,713.8492 Q184.0938,713.5679 184.7188,712.9898 L184.7188,715.7085 Z " fill="#000000"/><text fill="#000000" font-family="sans-serif" font-size="14" lengthAdjust="spacing" textLength="42" x="202.25" y="715.4999">Boleto</text><line style="stroke:#181818;stroke-width:0.5;" x1="29.5" x2="384.5" y1="726.0679" y2="726.0679"/><rect fill="none" height="6" style="stroke:#C82930;stroke-width:1.0;" width="6" x="36.5" y="738.1019"/><text fill="#000000" font-family="sans-serif" font-size="14" lengthAdjust="spacing" textLength="39" x="48.5" y="745.0339">id: int</text><rect fill="none" height="6" style="stroke:#C82930;stroke-width:1.0;" width="6" x="36.5" y="757.1698"/><text fill="#000000" font-family="sans-serif" font-size="14" lengthAdjust="spacing" textLength="80" x="48.5" y="764.1018">precio: long</text><rect fill="none" height="6" style="stroke:#C82930;stroke-width:1.0;" width="6" x="36.5" y="776.2377"/><text fill="#000000" font-family="sans-serif" font-size="14" lengthAdjust="spacing" textLength="140" x="48.5" y="783.1697">estado: EstadoBoleto</text><rect fill="none" height="6" style="stroke:#C82930;stroke-width:1.0;" width="6" x="36.5" y="795.3056"/><text fill="#000000" font-family="sans-serif" font-size="14" lengthAdjust="spacing" textLength="134" x="48.5" y="802.2376">concierto: Concierto</text><rect fill="none" height="6" style="stroke:#C82930;stroke-width:1.0;" width="6" x="36.5" y="814.3735"/><text fill="#000000" font-family="sans-serif" font-size="14" lengthAdjust="spacing" textLength="107" x="48.5" y="821.3055">asiento: Asiento</text><line style="stroke:#181818;stroke-width:0.5;" x1="29.5" x2="384.5" y1="829.4075" y2="829.4075"/><ellipse cx="39.5" cy="844.4415" fill="#84BE84" rx="3" ry="3" style="stroke:#038048;stroke-width:1.0;"/><text fill="#000000" font-family="sans-serif" font-size="14" lengthAdjust="spacing" textLength="331" x="48.5" y="848.3734">Boleto(int, long, EstadoBoleto, Concierto, Asiento)</text><ellipse cx="39.5" cy="863.5094" fill="#84BE84" rx="3" ry="3" style="stroke:#038048;stroke-width:1.0;"/><text fill="#000000" font-family="sans-serif" font-size="14" lengthAdjust="spacing" textLength="196" x="48.5" y="867.4414">setEstado(EstadoBoleto): void</text><ellipse cx="39.5" cy="882.5773" fill="#84BE84" rx="3" ry="3" style="stroke:#038048;stroke-width:1.0;"/><text fill="#000000" font-family="sans-serif" font-size="14" lengthAdjust="spacing" textLength="111" x="48.5" y="886.5093">toString(): String</text></g><!--class Compra--><g id="elem_Compra"><rect codeLine="59" fill="#F1F1F1" height="143.3396" id="Compra" rx="2.5" ry="2.5" style="stroke:#181818;stroke-width:0.5;" width="301" x="163.5" y="472.0679"/><ellipse cx="283.25" cy="488.0679" fill="#ADD1B2" rx="11" ry="11" style="stroke:#181818;stroke-width:1.0;"/><path d="M286.2188,493.7085 Q285.6406,494.0054 285,494.146 Q284.3594,494.3023 283.6563,494.3023 Q281.1563,494.3023 279.8281,492.6617 Q278.5156,491.0054 278.5156,487.8804 Q278.5156,484.7554 279.8281,483.0992 Q281.1563,481.4429 283.6563,481.4429 Q284.3594,481.4429 285,481.5992 Q285.6563,481.7554 286.2188,482.0523 L286.2188,484.771 Q285.5938,484.1929 285,483.9273 Q284.4063,483.646 283.7813,483.646 Q282.4375,483.646 281.75,484.7242 Q281.0625,485.7867 281.0625,487.8804 Q281.0625,489.9742 281.75,491.0523 Q282.4375,492.1148 283.7813,492.1148 Q284.4063,492.1148 285,491.8492 Q285.5938,491.5679 286.2188,490.9898 L286.2188,493.7085 Z " fill="#000000"/><text fill="#000000" font-family="sans-serif" font-size="14" lengthAdjust="spacing" textLength="53" x="303.75" y="493.4999">Compra</text><line style="stroke:#181818;stroke-width:0.5;" x1="164.5" x2="463.5" y1="504.0679" y2="504.0679"/><rect fill="none" height="6" style="stroke:#C82930;stroke-width:1.0;" width="6" x="171.5" y="516.1019"/><text fill="#000000" font-family="sans-serif" font-size="14" lengthAdjust="spacing" textLength="111" x="183.5" y="523.0339">usuario: Usuario</text><rect fill="none" height="6" style="stroke:#C82930;stroke-width:1.0;" width="6" x="171.5" y="535.1698"/><text fill="#000000" font-family="sans-serif" font-size="14" lengthAdjust="spacing" textLength="215" x="183.5" y="542.1018">boletosComprados: List&lt;Boleto&gt;</text><rect fill="none" height="6" style="stroke:#C82930;stroke-width:1.0;" width="6" x="171.5" y="554.2377"/><text fill="#000000" font-family="sans-serif" font-size="14" lengthAdjust="spacing" textLength="110" x="183.5" y="561.1697">fecha: LocalDate</text><line style="stroke:#181818;stroke-width:0.5;" x1="164.5" x2="463.5" y1="569.2717" y2="569.2717"/><ellipse cx="174.5" cy="584.3056" fill="#84BE84" rx="3" ry="3" style="stroke:#038048;stroke-width:1.0;"/><text fill="#000000" font-family="sans-serif" font-size="14" lengthAdjust="spacing" textLength="275" x="183.5" y="588.2376">Compra(Usuario, List&lt;Boleto&gt;, LocalDate)</text><ellipse cx="174.5" cy="603.3735" fill="#84BE84" rx="3" ry="3" style="stroke:#038048;stroke-width:1.0;"/><text fill="#000000" font-family="sans-serif" font-size="14" lengthAdjust="spacing" textLength="111" x="183.5" y="607.3055">toString(): String</text></g><!--class SistemaVentas--><g id="elem_SistemaVentas"><rect codeLine="67" fill="#F1F1F1" height="124.2717" id="SistemaVentas" rx="2.5" ry="2.5" style="stroke:#181818;stroke-width:0.5;" width="425" x="367.5" y="269.0679"/><ellipse cx="526.75" cy="285.0679" fill="#ADD1B2" rx="11" ry="11" style="stroke:#181818;stroke-width:1.0;"/><path d="M529.7188,290.7085 Q529.1406,291.0054 528.5,291.146 Q527.8594,291.3023 527.1563,291.3023 Q524.6563,291.3023 523.3281,289.6617 Q522.0156,288.0054 522.0156,284.8804 Q522.0156,281.7554 523.3281,280.0992 Q524.6563,278.4429 527.1563,278.4429 Q527.8594,278.4429 528.5,278.5992 Q529.1563,278.7554 529.7188,279.0523 L529.7188,281.771 Q529.0938,281.1929 528.5,280.9273 Q527.9063,280.646 527.2813,280.646 Q525.9375,280.646 525.25,281.7242 Q524.5625,282.7867 524.5625,284.8804 Q524.5625,286.9742 525.25,288.0523 Q525.9375,289.1148 527.2813,289.1148 Q527.9063,289.1148 528.5,288.8492 Q529.0938,288.5679 529.7188,287.9898 L529.7188,290.7085 Z " fill="#000000"/><text fill="#000000" font-family="sans-serif" font-size="14" lengthAdjust="spacing" textLength="98" x="547.25" y="290.4999">SistemaVentas</text><line style="stroke:#181818;stroke-width:0.5;" x1="368.5" x2="791.5" y1="301.0679" y2="301.0679"/><line style="stroke:#181818;stroke-width:0.5;" x1="368.5" x2="791.5" y1="309.0679" y2="309.0679"/><ellipse cx="378.5" cy="324.1019" fill="#84BE84" rx="3" ry="3" style="stroke:#038048;stroke-width:1.0;"/><text fill="#000000" font-family="sans-serif" font-size="14" lengthAdjust="spacing" textLength="399" x="387.5" y="328.0339">buscarConciertos(String, LocalDate, String): List&lt;Concierto&gt;</text><ellipse cx="378.5" cy="343.1698" fill="#84BE84" rx="3" ry="3" style="stroke:#038048;stroke-width:1.0;"/><text fill="#000000" font-family="sans-serif" font-size="14" lengthAdjust="spacing" textLength="282" x="387.5" y="347.1018">seleccionarAsiento(Concierto, int): Asiento</text><ellipse cx="378.5" cy="362.2377" fill="#84BE84" rx="3" ry="3" style="stroke:#038048;stroke-width:1.0;"/><text fill="#000000" font-family="sans-serif" font-size="14" lengthAdjust="spacing" textLength="309" x="387.5" y="366.1697">comprarBoleto(Usuario, List&lt;Boleto&gt;): Compra</text><ellipse cx="378.5" cy="381.3056" fill="#84BE84" rx="3" ry="3" style="stroke:#038048;stroke-width:1.0;"/><text fill="#000000" font-family="sans-serif" font-size="14" lengthAdjust="spacing" textLength="251" x="387.5" y="385.2376">confirmacionCompra(Compra): String</text></g><!--link Boleto to EstadoBoleto--><g id="link_Boleto_EstadoBoleto"><path codeLine="74" d="M385.59,794.5679 C406.22,794.5679 420.03,794.5679 437.3,794.5679 " fill="none" id="Boleto-to-EstadoBoleto" style="stroke:#181818;stroke-width:1.0;"/><polygon fill="#181818" points="443.3,794.5679,434.3,790.5679,438.3,794.5679,434.3,798.5679,443.3,794.5679" style="stroke:#181818;stroke-width:1.0;"/><text fill="#000000" font-family="sans-serif" font-size="13" lengthAdjust="spacing" textLength="21" x="404" y="787.4649">usa</text></g><!--link Asiento to TipoAsiento--><g id="link_Asiento_TipoAsiento"><path codeLine="75" d="M245.06,1074.5679 C265.08,1074.5679 278.99,1074.5679 296.38,1074.5679 " fill="none" id="Asiento-to-TipoAsiento" style="stroke:#181818;stroke-width:1.0;"/><polygon fill="#181818" points="302.38,1074.5679,293.38,1070.5679,297.38,1074.5679,293.38,1078.5679,302.38,1074.5679" style="stroke:#181818;stroke-width:1.0;"/><text fill="#000000" font-family="sans-serif" font-size="13" lengthAdjust="spacing" textLength="21" x="263.25" y="1067.4649">usa</text></g><!--link Usuario to SistemaVentas--><g id="link_Usuario_SistemaVentas"><path codeLine="78" d="M422.58,190.2479 C451.22,215.6879 478.7943,240.1731 506.4643,264.7531 " fill="none" id="Usuario-to-SistemaVentas" style="stroke:#181818;stroke-width:1.0;stroke-dasharray:7.0,7.0;"/><polygon fill="#181818" points="510.95,268.7379,506.878,259.7703,507.2119,265.4173,501.5649,265.7512,510.95,268.7379" style="stroke:#181818;stroke-width:1.0;"/><text fill="#000000" font-family="sans-serif" font-size="13" lengthAdjust="spacing" textLength="21" x="476" y="234.9649">usa</text></g><!--link SistemaVentas to Compra--><g id="link_SistemaVentas_Compra"><path codeLine="79" d="M502.7,393.2379 C471.57,417.8779 440.1552,442.7349 407.9152,468.2449 " fill="none" id="SistemaVentas-to-Compra" style="stroke:#181818;stroke-width:1.0;stroke-dasharray:7.0,7.0;"/><polygon fill="#181818" points="403.21,471.9679,412.7498,469.5202,407.131,468.8654,407.7858,463.2466,403.21,471.9679" style="stroke:#181818;stroke-width:1.0;"/><text fill="#000000" font-family="sans-serif" font-size="13" lengthAdjust="spacing" textLength="25" x="463" y="437.9649">crea</text></g><!--link SistemaVentas to Concierto--><g id="link_SistemaVentas_Concierto"><path codeLine="80" d="M582.98,393.3779 C589.19,521.4179 603.3088,812.205 610.8788,967.995 " fill="none" id="SistemaVentas-to-Concierto" style="stroke:#181818;stroke-width:1.0;stroke-dasharray:7.0,7.0;"/><polygon fill="#181818" points="611.17,973.9879,614.7285,964.8044,610.9273,968.9938,606.7379,965.1927,611.17,973.9879" style="stroke:#181818;stroke-width:1.0;"/><text fill="#000000" font-family="sans-serif" font-size="13" lengthAdjust="spacing" textLength="51" x="596" y="659.9649">consulta</text></g><!--link Usuario to Compra--><g id="link_Usuario_Compra"><path codeLine="82" d="M338.15,190.3679 C332.78,268.5679 324.6098,387.7519 319.2598,465.9019 " fill="none" id="Usuario-to-Compra" style="stroke:#181818;stroke-width:1.0;"/><polygon fill="#181818" points="318.85,471.8879,323.4553,463.1821,319.1915,466.8996,315.474,462.6357,318.85,471.8879" style="stroke:#181818;stroke-width:1.0;"/><text fill="#000000" font-family="sans-serif" font-size="13" lengthAdjust="spacing" textLength="7" x="330.328" y="212.1875">1</text><text fill="#000000" font-family="sans-serif" font-size="13" lengthAdjust="spacing" textLength="20" x="298.2867" y="460.0353">1..*</text></g><!--link Compra to Boleto--><g id="link_Compra_Boleto"><path codeLine="83" d="M283.62,615.2579 C273.12,639.6979 263.5088,662.0553 252.1988,688.3753 " fill="none" id="Compra-to-Boleto" style="stroke:#181818;stroke-width:1.0;"/><polygon fill="#181818" points="249.83,693.8879,257.0583,687.1982,251.804,689.2941,249.7082,684.0398,249.83,693.8879" style="stroke:#181818;stroke-width:1.0;"/><text fill="#000000" font-family="sans-serif" font-size="13" lengthAdjust="spacing" textLength="7" x="273.1261" y="637.4434">1</text><text fill="#000000" font-family="sans-serif" font-size="13" lengthAdjust="spacing" textLength="20" x="232.4461" y="682.131">1..*</text></g><!--link Boleto to Concierto--><g id="link_Boleto_Concierto"><path codeLine="84" d="M353.5,895.1479 C391.21,920.7779 426.8177,944.9852 464.5277,970.6152 " fill="none" id="Boleto-to-Concierto" style="stroke:#181818;stroke-width:1.0;"/><polygon fill="#181818" points="469.49,973.9879,464.295,965.6206,465.3547,971.1773,459.798,972.2371,469.49,973.9879" style="stroke:#181818;stroke-width:1.0;"/><text fill="#000000" font-family="sans-serif" font-size="13" lengthAdjust="spacing" textLength="81" x="424" y="939.9649">pertenecen a:</text><text fill="#000000" font-family="sans-serif" font-size="13" lengthAdjust="spacing" textLength="20" x="342.6711" y="916.4128">1..*</text><text fill="#000000" font-family="sans-serif" font-size="13" lengthAdjust="spacing" textLength="7" x="450.5361" y="962.2389">1</text></g><!--link Concierto to Lugar--><g id="link_Concierto_Lugar"><path codeLine="85" d="M616,1175.4079 C616,1201.6579 616,1223.4279 616,1247.7979 " fill="none" id="Concierto-to-Lugar" style="stroke:#181818;stroke-width:1.0;"/><polygon fill="#181818" points="616,1253.7979,620,1244.7979,616,1248.7979,612,1244.7979,616,1253.7979" style="stroke:#181818;stroke-width:1.0;"/><text fill="#000000" font-family="sans-serif" font-size="13" lengthAdjust="spacing" textLength="30" x="617" y="1219.9649">tiene</text><text fill="#000000" font-family="sans-serif" font-size="13" lengthAdjust="spacing" textLength="7" x="608.7758" y="1196.3468">1</text><text fill="#000000" font-family="sans-serif" font-size="13" lengthAdjust="spacing" textLength="7" x="608.6391" y="1242.436">1</text></g><!--link Boleto to Asiento--><g id="link_Boleto_Asiento"><path codeLine="86" d="M177.99,895.1479 C167.59,930.8279 157.7678,964.5173 148.2378,997.2373 " fill="none" id="Boleto-to-Asiento" style="stroke:#181818;stroke-width:1.0;"/><polygon fill="#181818" points="146.56,1002.9979,152.9172,995.4755,147.9582,998.1974,145.2363,993.2384,146.56,1002.9979" style="stroke:#181818;stroke-width:1.0;"/><text fill="#000000" font-family="sans-serif" font-size="13" lengthAdjust="spacing" textLength="30" x="170" y="939.9649">tiene</text><text fill="#000000" font-family="sans-serif" font-size="13" lengthAdjust="spacing" textLength="7" x="168.8057" y="916.4128">1</text><text fill="#000000" font-family="sans-serif" font-size="13" lengthAdjust="spacing" textLength="7" x="141.4259" y="991.1573">1</text></g><!--SRC=[ZLJDYjim4BxxAOHFJcC7zYfAe6rAAVHGsEtU9_8aAv0b8yczb3vIdw8lLiKZsL8QiflBnFFxpJSpyj8hP0S9Pmi3i4VfF0RvqIZqQF_-WQeI2fnZFzm4LffV5Gk_JflXQ96pHs-bFfDE66lHb3gF2az6bzfjpDMGhcMbtEp9onlwRZPBzE-4vfFHGgBrz_2SKBm0Pz-C07K0ZwHzCJOfd-GGbMewWmtQYo0DM1-e01UKGRwdl0IiErx8CSaqKsKYvWNNqjjIlbsBjbHfytgViz-T7djfKGXfzDKeO0GXU-WvazfJcJdLVvG7yrqOgAU1FSdHV70IjJUCm3n__TxEVxwWHWjgHHpz4kPfG6jM5Dr9AhXQaP2SvoK8JlneGkIADlDw7VNdCB_Uq7W8pa6wqMXvL4ZWdr7tiZSh-DovanbxtHXubW6dCWatpkbvKIOTGbm2lkvft2h2pbdHAiLIfvVyRP6pNPEqh6pUeIVF9Wy8JFmqid_B4GsZXTZjH3V9qw4NgqwU_SsTltrdMmffOhQsYCkkuWqt4D-aCAnmZuHsUvoS0BiGuswTMtnD8kJ5Tv-uKtGvODEgPJnVpk9gIc9koCPXtUnhmoEdAKAVf1tWKYNIGI9hClXL5OMpRbyCdhF9GPNkBXYpxITRLKKORBVRbpoHGw6QdGW0PyBYRVEokW6zcvI7jKZzKBCkuAWVThjtTMgLnBKntaFiB2h9NkTLnY324o9GC-3LOiZIrVG8SkP3vxXcNEqB9xF7Fm00]--></g></svg>