<?xml version="1.0" encoding="us-ascii" standalone="no"?><svg xmlns="http://www.w3.org/2000/svg" xmlns:xlink="http://www.w3.org/1999/xlink" contentStyleType="text/css" height="712px" preserveAspectRatio="none" style="width:1225px;height:712px;background:#FFFFFF;" version="1.1" viewBox="0 0 1225 712" width="1225px" zoomAndPan="magnify"><defs/><g><text fill="#000000" font-family="sans-serif" font-size="14" font-weight="bold" lengthAdjust="spacing" textLength="223" x="494.25" y="24.9659">Diagrama Hospital Universitario</text><!--class Paciente--><g id="elem_Paciente"><rect codeLine="3" fill="#F1F1F1" height="353.0867" id="Paciente" rx="2.5" ry="2.5" style="stroke:#181818;stroke-width:0.5;" width="361" x="336" y="72.8979"/><ellipse cx="483.75" cy="88.8979" fill="#ADD1B2" rx="11" ry="11" style="stroke:#181818;stroke-width:1.0;"/><path d="M486.7188,94.5385 Q486.1406,94.8354 485.5,94.976 Q484.8594,95.1323 484.1563,95.1323 Q481.6563,95.1323 480.3281,93.4917 Q479.0156,91.8354 479.0156,88.7104 Q479.0156,85.5854 480.3281,83.9292 Q481.6563,82.2729 484.1563,82.2729 Q484.8594,82.2729 485.5,82.4292 Q486.1563,82.5854 486.7188,82.8823 L486.7188,85.601 Q486.0938,85.0229 485.5,84.7573 Q484.9063,84.476 484.2813,84.476 Q482.9375,84.476 482.25,85.5542 Q481.5625,86.6167 481.5625,88.7104 Q481.5625,90.8042 482.25,91.8823 Q482.9375,92.9448 484.2813,92.9448 Q484.9063,92.9448 485.5,92.6792 Q486.0938,92.3979 486.7188,91.8198 L486.7188,94.5385 Z " fill="#000000"/><text fill="#000000" font-family="sans-serif" font-size="14" lengthAdjust="spacing" textLength="57" x="504.25" y="94.3299">Paciente</text><line style="stroke:#181818;stroke-width:0.5;" x1="337" x2="696" y1="104.8979" y2="104.8979"/><rect fill="none" height="6" style="stroke:#C82930;stroke-width:1.0;" width="6" x="344" y="116.9319"/><text fill="#000000" font-family="sans-serif" font-size="14" lengthAdjust="spacing" textLength="96" x="356" y="123.8639">idPaciente: int</text><rect fill="none" height="6" style="stroke:#C82930;stroke-width:1.0;" width="6" x="344" y="135.9998"/><text fill="#000000" font-family="sans-serif" font-size="14" lengthAdjust="spacing" textLength="102" x="356" y="142.9318">nombre: String</text><rect fill="none" height="6" style="stroke:#C82930;stroke-width:1.0;" width="6" x="344" y="155.0677"/><text fill="#000000" font-family="sans-serif" font-size="14" lengthAdjust="spacing" textLength="60" x="356" y="161.9997">edad: int</text><rect fill="none" height="6" style="stroke:#C82930;stroke-width:1.0;" width="6" x="344" y="174.1356"/><text fill="#000000" font-family="sans-serif" font-size="14" lengthAdjust="spacing" textLength="229" x="356" y="181.0676">tipoEnfermedad: TipoEnfermedad</text><rect fill="none" height="6" style="stroke:#C82930;stroke-width:1.0;" width="6" x="344" y="193.2035"/><text fill="#000000" font-family="sans-serif" font-size="14" lengthAdjust="spacing" textLength="197" x="356" y="200.1355">estadoActual: EstadoPaciente</text><rect fill="none" height="6" style="stroke:#C82930;stroke-width:1.0;" width="6" x="344" y="212.2715"/><text fill="#000000" font-family="sans-serif" font-size="14" lengthAdjust="spacing" textLength="132" x="356" y="219.2034">tipoGenero: Genero</text><rect fill="none" height="6" style="stroke:#C82930;stroke-width:1.0;" width="6" x="344" y="231.3394"/><text fill="#000000" font-family="sans-serif" font-size="14" lengthAdjust="spacing" textLength="270" x="356" y="238.2714">historialTratamiento: List &lt;Tratamiento&gt;</text><rect fill="none" height="6" style="stroke:#C82930;stroke-width:1.0;" width="6" x="344" y="250.4073"/><text fill="#000000" font-family="sans-serif" font-size="14" lengthAdjust="spacing" textLength="217" x="356" y="257.3393">resultadoExamen: List&lt;Examen&gt;</text><line style="stroke:#181818;stroke-width:0.5;" x1="337" x2="696" y1="265.4413" y2="265.4413"/><ellipse cx="347" cy="280.4752" fill="#84BE84" rx="3" ry="3" style="stroke:#038048;stroke-width:1.0;"/><text fill="#000000" font-family="sans-serif" font-size="14" lengthAdjust="spacing" textLength="335" x="356" y="284.4072">Paciente (int, String, int, TipoEnfermedad, Estado)</text><ellipse cx="347" cy="299.5431" fill="#84BE84" rx="3" ry="3" style="stroke:#038048;stroke-width:1.0;"/><text fill="#000000" font-family="sans-serif" font-size="14" lengthAdjust="spacing" textLength="179" x="356" y="303.4751">getIdPaciente(): idPaciente</text><ellipse cx="347" cy="318.611" fill="#84BE84" rx="3" ry="3" style="stroke:#038048;stroke-width:1.0;"/><text fill="#000000" font-family="sans-serif" font-size="14" lengthAdjust="spacing" textLength="191" x="356" y="322.543">getTipoGenero(): tipoGenero</text><ellipse cx="347" cy="337.679" fill="#84BE84" rx="3" ry="3" style="stroke:#038048;stroke-width:1.0;"/><text fill="#000000" font-family="sans-serif" font-size="14" lengthAdjust="spacing" textLength="259" x="356" y="341.6109">getTipoEnfermedad(): tipoEnfermedad</text><ellipse cx="347" cy="356.7469" fill="#84BE84" rx="3" ry="3" style="stroke:#038048;stroke-width:1.0;"/><text fill="#000000" font-family="sans-serif" font-size="14" lengthAdjust="spacing" textLength="227" x="356" y="360.6789">getEstadoActual(): EstadoPaciente</text><ellipse cx="347" cy="375.8148" fill="#84BE84" rx="3" ry="3" style="stroke:#038048;stroke-width:1.0;"/><text fill="#000000" font-family="sans-serif" font-size="14" lengthAdjust="spacing" textLength="151" x="356" y="379.7468">agregarExamen(): void</text><ellipse cx="347" cy="394.8827" fill="#84BE84" rx="3" ry="3" style="stroke:#038048;stroke-width:1.0;"/><text fill="#000000" font-family="sans-serif" font-size="14" lengthAdjust="spacing" textLength="180" x="356" y="398.8147">agregarTratamiento(): void</text><ellipse cx="347" cy="413.9506" fill="#84BE84" rx="3" ry="3" style="stroke:#038048;stroke-width:1.0;"/><text fill="#000000" font-family="sans-serif" font-size="14" lengthAdjust="spacing" textLength="115" x="356" y="417.8826">toString (): String</text></g><!--class TipoEnfermedad--><g id="elem_TipoEnfermedad"><rect codeLine="22" fill="#F1F1F1" height="124.2717" id="TipoEnfermedad" rx="2.5" ry="2.5" style="stroke:#181818;stroke-width:0.5;" width="144" x="1074.5" y="187.3979"/><ellipse cx="1089.5" cy="203.3979" fill="#EB937F" rx="11" ry="11" style="stroke:#181818;stroke-width:1.0;"/><path d="M1093.6094,209.3979 L1085.8906,209.3979 L1085.8906,197.0073 L1093.6094,197.0073 L1093.6094,199.1635 L1088.3438,199.1635 L1088.3438,201.8354 L1093.1094,201.8354 L1093.1094,203.9917 L1088.3438,203.9917 L1088.3438,207.2417 L1093.6094,207.2417 L1093.6094,209.3979 Z " fill="#000000"/><text fill="#000000" font-family="sans-serif" font-size="14" lengthAdjust="spacing" textLength="112" x="1103.5" y="208.8299">TipoEnfermedad</text><line style="stroke:#181818;stroke-width:0.5;" x1="1075.5" x2="1217.5" y1="219.3979" y2="219.3979"/><text fill="#000000" font-family="sans-serif" font-size="14" lengthAdjust="spacing" textLength="91" x="1080.5" y="238.3639">Hipertension,</text><text fill="#000000" font-family="sans-serif" font-size="14" lengthAdjust="spacing" textLength="82" x="1080.5" y="257.4318">Cardiopatia,</text><text fill="#000000" font-family="sans-serif" font-size="14" lengthAdjust="spacing" textLength="90" x="1080.5" y="276.4997">Insuficiencia,</text><text fill="#000000" font-family="sans-serif" font-size="14" lengthAdjust="spacing" textLength="59" x="1080.5" y="295.5676">Cardiaca</text><line style="stroke:#181818;stroke-width:0.5;" x1="1075.5" x2="1217.5" y1="303.6696" y2="303.6696"/></g><!--class EstadoPaciente--><g id="elem_EstadoPaciente"><rect codeLine="29" fill="#F1F1F1" height="105.2038" id="EstadoPaciente" rx="2.5" ry="2.5" style="stroke:#181818;stroke-width:0.5;" width="134" x="905.5" y="196.8979"/><ellipse cx="920.5" cy="212.8979" fill="#EB937F" rx="11" ry="11" style="stroke:#181818;stroke-width:1.0;"/><path d="M924.6094,218.8979 L916.8906,218.8979 L916.8906,206.5073 L924.6094,206.5073 L924.6094,208.6635 L919.3438,208.6635 L919.3438,211.3354 L924.1094,211.3354 L924.1094,213.4917 L919.3438,213.4917 L919.3438,216.7417 L924.6094,216.7417 L924.6094,218.8979 Z " fill="#000000"/><text fill="#000000" font-family="sans-serif" font-size="14" lengthAdjust="spacing" textLength="102" x="934.5" y="218.3299">EstadoPaciente</text><line style="stroke:#181818;stroke-width:0.5;" x1="906.5" x2="1038.5" y1="228.8979" y2="228.8979"/><text fill="#000000" font-family="sans-serif" font-size="14" lengthAdjust="spacing" textLength="86" x="911.5" y="247.8639">Tratamiento,</text><text fill="#000000" font-family="sans-serif" font-size="14" lengthAdjust="spacing" textLength="89" x="911.5" y="266.9318">En_Remision,</text><text fill="#000000" font-family="sans-serif" font-size="14" lengthAdjust="spacing" textLength="102" x="911.5" y="285.9997">Hospitalizacion</text><line style="stroke:#181818;stroke-width:0.5;" x1="906.5" x2="1038.5" y1="294.1017" y2="294.1017"/></g><!--class GeneroPaciente--><g id="elem_GeneroPaciente"><rect codeLine="35" fill="#F1F1F1" height="86.1358" id="GeneroPaciente" rx="2.5" ry="2.5" style="stroke:#181818;stroke-width:0.5;" width="138" x="732.5" y="206.3979"/><ellipse cx="747.5" cy="222.3979" fill="#EB937F" rx="11" ry="11" style="stroke:#181818;stroke-width:1.0;"/><path d="M751.6094,228.3979 L743.8906,228.3979 L743.8906,216.0073 L751.6094,216.0073 L751.6094,218.1635 L746.3438,218.1635 L746.3438,220.8354 L751.1094,220.8354 L751.1094,222.9917 L746.3438,222.9917 L746.3438,226.2417 L751.6094,226.2417 L751.6094,228.3979 Z " fill="#000000"/><text fill="#000000" font-family="sans-serif" font-size="14" lengthAdjust="spacing" textLength="106" x="761.5" y="227.8299">GeneroPaciente</text><line style="stroke:#181818;stroke-width:0.5;" x1="733.5" x2="869.5" y1="238.3979" y2="238.3979"/><text fill="#000000" font-family="sans-serif" font-size="14" lengthAdjust="spacing" textLength="44" x="738.5" y="257.3639">Mujer,</text><text fill="#000000" font-family="sans-serif" font-size="14" lengthAdjust="spacing" textLength="54" x="738.5" y="276.4318">Hombre</text><line style="stroke:#181818;stroke-width:0.5;" x1="733.5" x2="869.5" y1="284.5338" y2="284.5338"/></g><!--class TipoTratamiento--><g id="elem_TipoTratamiento"><rect codeLine="40" fill="#F1F1F1" height="105.2038" id="TipoTratamiento" rx="2.5" ry="2.5" style="stroke:#181818;stroke-width:0.5;" width="143" x="868" y="552.8979"/><ellipse cx="883" cy="568.8979" fill="#EB937F" rx="11" ry="11" style="stroke:#181818;stroke-width:1.0;"/><path d="M887.1094,574.8979 L879.3906,574.8979 L879.3906,562.5073 L887.1094,562.5073 L887.1094,564.6635 L881.8438,564.6635 L881.8438,567.3354 L886.6094,567.3354 L886.6094,569.4917 L881.8438,569.4917 L881.8438,572.7417 L887.1094,572.7417 L887.1094,574.8979 Z " fill="#000000"/><text fill="#000000" font-family="sans-serif" font-size="14" lengthAdjust="spacing" textLength="111" x="897" y="574.3299">TipoTratamiento</text><line style="stroke:#181818;stroke-width:0.5;" x1="869" x2="1010" y1="584.8979" y2="584.8979"/><text fill="#000000" font-family="sans-serif" font-size="14" lengthAdjust="spacing" textLength="103" x="874" y="603.8639">Medicamentos,</text><text fill="#000000" font-family="sans-serif" font-size="14" lengthAdjust="spacing" textLength="53" x="874" y="622.9318">Cirugia,</text><text fill="#000000" font-family="sans-serif" font-size="14" lengthAdjust="spacing" textLength="51" x="874" y="641.9997">Terapia</text><line style="stroke:#181818;stroke-width:0.5;" x1="869" x2="1010" y1="650.1017" y2="650.1017"/></g><!--class TipoExamen--><g id="elem_TipoExamen"><rect codeLine="46" fill="#F1F1F1" height="124.2717" id="TipoExamen" rx="2.5" ry="2.5" style="stroke:#181818;stroke-width:0.5;" width="148" x="391.5" y="543.3979"/><ellipse cx="421.8" cy="559.3979" fill="#EB937F" rx="11" ry="11" style="stroke:#181818;stroke-width:1.0;"/><path d="M425.9094,565.3979 L418.1906,565.3979 L418.1906,553.0073 L425.9094,553.0073 L425.9094,555.1635 L420.6438,555.1635 L420.6438,557.8354 L425.4094,557.8354 L425.4094,559.9917 L420.6438,559.9917 L420.6438,563.2417 L425.9094,563.2417 L425.9094,565.3979 Z " fill="#000000"/><text fill="#000000" font-family="sans-serif" font-size="14" lengthAdjust="spacing" textLength="82" x="439.2" y="564.8299">TipoExamen</text><line style="stroke:#181818;stroke-width:0.5;" x1="392.5" x2="538.5" y1="575.3979" y2="575.3979"/><text fill="#000000" font-family="sans-serif" font-size="14" lengthAdjust="spacing" textLength="136" x="397.5" y="594.3639">Electrocardiograma,</text><text fill="#000000" font-family="sans-serif" font-size="14" lengthAdjust="spacing" textLength="51" x="397.5" y="613.4318">RayosX,</text><text fill="#000000" font-family="sans-serif" font-size="14" lengthAdjust="spacing" textLength="85" x="397.5" y="632.4997">Cateterismo,</text><text fill="#000000" font-family="sans-serif" font-size="14" lengthAdjust="spacing" textLength="41" x="397.5" y="651.5676">Holter</text><line style="stroke:#181818;stroke-width:0.5;" x1="392.5" x2="538.5" y1="659.6696" y2="659.6696"/></g><!--class Examen--><g id="elem_Examen"><rect codeLine="53" fill="#F1F1F1" height="162.4075" id="Examen" rx="2.5" ry="2.5" style="stroke:#181818;stroke-width:0.5;" width="244" x="112.5" y="524.3979"/><ellipse cx="203.75" cy="540.3979" fill="#ADD1B2" rx="11" ry="11" style="stroke:#181818;stroke-width:1.0;"/><path d="M206.7188,546.0385 Q206.1406,546.3354 205.5,546.476 Q204.8594,546.6323 204.1563,546.6323 Q201.6563,546.6323 200.3281,544.9917 Q199.0156,543.3354 199.0156,540.2104 Q199.0156,537.0854 200.3281,535.4292 Q201.6563,533.7729 204.1563,533.7729 Q204.8594,533.7729 205.5,533.9292 Q206.1563,534.0854 206.7188,534.3823 L206.7188,537.101 Q206.0938,536.5229 205.5,536.2573 Q204.9063,535.976 204.2813,535.976 Q202.9375,535.976 202.25,537.0542 Q201.5625,538.1167 201.5625,540.2104 Q201.5625,542.3042 202.25,543.3823 Q202.9375,544.4448 204.2813,544.4448 Q204.9063,544.4448 205.5,544.1792 Q206.0938,543.8979 206.7188,543.3198 L206.7188,546.0385 Z " fill="#000000"/><text fill="#000000" font-family="sans-serif" font-size="14" lengthAdjust="spacing" textLength="53" x="224.25" y="545.8299">Examen</text><line style="stroke:#181818;stroke-width:0.5;" x1="113.5" x2="355.5" y1="556.3979" y2="556.3979"/><rect fill="none" height="6" style="stroke:#C82930;stroke-width:1.0;" width="6" x="120.5" y="568.4319"/><text fill="#000000" font-family="sans-serif" font-size="14" lengthAdjust="spacing" textLength="39" x="132.5" y="575.3639">id: int</text><rect fill="none" height="6" style="stroke:#C82930;stroke-width:1.0;" width="6" x="120.5" y="587.4998"/><text fill="#000000" font-family="sans-serif" font-size="14" lengthAdjust="spacing" textLength="112" x="132.5" y="594.4318">fecha: LocalTime</text><rect fill="none" height="6" style="stroke:#C82930;stroke-width:1.0;" width="6" x="120.5" y="606.5677"/><text fill="#000000" font-family="sans-serif" font-size="14" lengthAdjust="spacing" textLength="169" x="132.5" y="613.4997">tipoExamen: TipoExamen</text><rect fill="none" height="6" style="stroke:#C82930;stroke-width:1.0;" width="6" x="120.5" y="625.6356"/><text fill="#000000" font-family="sans-serif" font-size="14" lengthAdjust="spacing" textLength="113" x="132.5" y="632.5676">resultado: String</text><line style="stroke:#181818;stroke-width:0.5;" x1="113.5" x2="355.5" y1="640.6696" y2="640.6696"/><ellipse cx="123.5" cy="655.7035" fill="#84BE84" rx="3" ry="3" style="stroke:#038048;stroke-width:1.0;"/><text fill="#000000" font-family="sans-serif" font-size="14" lengthAdjust="spacing" textLength="218" x="132.5" y="659.6355">Examen(int, TipoExamen, String)</text><ellipse cx="123.5" cy="674.7715" fill="#84BE84" rx="3" ry="3" style="stroke:#038048;stroke-width:1.0;"/><text fill="#000000" font-family="sans-serif" font-size="14" lengthAdjust="spacing" textLength="111" x="132.5" y="678.7034">toString(): String</text></g><!--class Tratamiento--><g id="elem_Tratamiento"><rect codeLine="63" fill="#F1F1F1" height="200.5433" id="Tratamiento" rx="2.5" ry="2.5" style="stroke:#181818;stroke-width:0.5;" width="258" x="574.5" y="504.8979"/><ellipse cx="658.25" cy="520.8979" fill="#ADD1B2" rx="11" ry="11" style="stroke:#181818;stroke-width:1.0;"/><path d="M661.2188,526.5385 Q660.6406,526.8354 660,526.976 Q659.3594,527.1323 658.6563,527.1323 Q656.1563,527.1323 654.8281,525.4917 Q653.5156,523.8354 653.5156,520.7104 Q653.5156,517.5854 654.8281,515.9292 Q656.1563,514.2729 658.6563,514.2729 Q659.3594,514.2729 660,514.4292 Q660.6563,514.5854 661.2188,514.8823 L661.2188,517.601 Q660.5938,517.0229 660,516.7573 Q659.4063,516.476 658.7813,516.476 Q657.4375,516.476 656.75,517.5542 Q656.0625,518.6167 656.0625,520.7104 Q656.0625,522.8042 656.75,523.8823 Q657.4375,524.9448 658.7813,524.9448 Q659.4063,524.9448 660,524.6792 Q660.5938,524.3979 661.2188,523.8198 L661.2188,526.5385 Z " fill="#000000"/><text fill="#000000" font-family="sans-serif" font-size="14" lengthAdjust="spacing" textLength="82" x="678.75" y="526.3299">Tratamiento</text><line style="stroke:#181818;stroke-width:0.5;" x1="575.5" x2="831.5" y1="536.8979" y2="536.8979"/><rect fill="none" height="6" style="stroke:#C82930;stroke-width:1.0;" width="6" x="582.5" y="548.9319"/><text fill="#000000" font-family="sans-serif" font-size="14" lengthAdjust="spacing" textLength="145" x="594.5" y="555.8639">tipo: TipoTratamiento</text><rect fill="none" height="6" style="stroke:#C82930;stroke-width:1.0;" width="6" x="582.5" y="567.9998"/><text fill="#000000" font-family="sans-serif" font-size="14" lengthAdjust="spacing" textLength="39" x="594.5" y="574.9318">id: int</text><rect fill="none" height="6" style="stroke:#C82930;stroke-width:1.0;" width="6" x="582.5" y="587.0677"/><text fill="#000000" font-family="sans-serif" font-size="14" lengthAdjust="spacing" textLength="102" x="594.5" y="593.9997">nombre: String</text><rect fill="none" height="6" style="stroke:#C82930;stroke-width:1.0;" width="6" x="582.5" y="606.1356"/><text fill="#000000" font-family="sans-serif" font-size="14" lengthAdjust="spacing" textLength="115" x="594.5" y="613.0676">duracionDias: int</text><rect fill="none" height="6" style="stroke:#C82930;stroke-width:1.0;" width="6" x="582.5" y="625.2035"/><text fill="#000000" font-family="sans-serif" font-size="14" lengthAdjust="spacing" textLength="180" x="594.5" y="632.1355">efectosSecundarios: String</text><line style="stroke:#181818;stroke-width:0.5;" x1="575.5" x2="831.5" y1="640.2375" y2="640.2375"/><ellipse cx="585.5" cy="655.2715" fill="#84BE84" rx="3" ry="3" style="stroke:#038048;stroke-width:1.0;"/><text fill="#000000" font-family="sans-serif" font-size="14" lengthAdjust="spacing" textLength="232" x="594.5" y="659.2034">Tratamiento(int, String, int, String)</text><ellipse cx="585.5" cy="674.3394" fill="#84BE84" rx="3" ry="3" style="stroke:#038048;stroke-width:1.0;"/><text fill="#000000" font-family="sans-serif" font-size="14" lengthAdjust="spacing" textLength="148" x="594.5" y="678.2714">calcularEficacia(): void</text><ellipse cx="585.5" cy="693.4073" fill="#84BE84" rx="3" ry="3" style="stroke:#038048;stroke-width:1.0;"/><text fill="#000000" font-family="sans-serif" font-size="14" lengthAdjust="spacing" textLength="111" x="594.5" y="697.3393">toString(): String</text></g><!--class Hospital--><g id="elem_Hospital"><rect codeLine="76" fill="#F1F1F1" height="181.4754" id="Hospital" rx="2.5" ry="2.5" style="stroke:#181818;stroke-width:0.5;" width="271" x="7" y="158.8979"/><ellipse cx="110.75" cy="174.8979" fill="#ADD1B2" rx="11" ry="11" style="stroke:#181818;stroke-width:1.0;"/><path d="M113.7188,180.5385 Q113.1406,180.8354 112.5,180.976 Q111.8594,181.1323 111.1563,181.1323 Q108.6563,181.1323 107.3281,179.4917 Q106.0156,177.8354 106.0156,174.7104 Q106.0156,171.5854 107.3281,169.9292 Q108.6563,168.2729 111.1563,168.2729 Q111.8594,168.2729 112.5,168.4292 Q113.1563,168.5854 113.7188,168.8823 L113.7188,171.601 Q113.0938,171.0229 112.5,170.7573 Q111.9063,170.476 111.2813,170.476 Q109.9375,170.476 109.25,171.5542 Q108.5625,172.6167 108.5625,174.7104 Q108.5625,176.8042 109.25,177.8823 Q109.9375,178.9448 111.2813,178.9448 Q111.9063,178.9448 112.5,178.6792 Q113.0938,178.3979 113.7188,177.8198 L113.7188,180.5385 Z " fill="#000000"/><text fill="#000000" font-family="sans-serif" font-size="14" lengthAdjust="spacing" textLength="55" x="131.25" y="180.3299">Hospital</text><line style="stroke:#181818;stroke-width:0.5;" x1="8" x2="277" y1="190.8979" y2="190.8979"/><rect fill="none" height="6" style="stroke:#C82930;stroke-width:1.0;" width="6" x="15" y="202.9319"/><text fill="#000000" font-family="sans-serif" font-size="14" lengthAdjust="spacing" textLength="196" x="27" y="209.8639">listaPacientes: List&lt;Paciente&gt;</text><line style="stroke:#181818;stroke-width:0.5;" x1="8" x2="277" y1="217.9658" y2="217.9658"/><ellipse cx="18" cy="232.9998" fill="#84BE84" rx="3" ry="3" style="stroke:#038048;stroke-width:1.0;"/><text fill="#000000" font-family="sans-serif" font-size="14" lengthAdjust="spacing" textLength="118" x="27" y="236.9318">main(): void static</text><ellipse cx="18" cy="252.0677" fill="#84BE84" rx="3" ry="3" style="stroke:#038048;stroke-width:1.0;"/><text fill="#000000" font-family="sans-serif" font-size="14" lengthAdjust="spacing" textLength="164" x="27" y="255.9997">registrarPaciente (): void</text><ellipse cx="18" cy="271.1356" fill="#84BE84" rx="3" ry="3" style="stroke:#038048;stroke-width:1.0;"/><text fill="#000000" font-family="sans-serif" font-size="14" lengthAdjust="spacing" textLength="216" x="27" y="275.0676">agregarExamenPaciente () : void</text><ellipse cx="18" cy="290.2035" fill="#84BE84" rx="3" ry="3" style="stroke:#038048;stroke-width:1.0;"/><text fill="#000000" font-family="sans-serif" font-size="14" lengthAdjust="spacing" textLength="245" x="27" y="294.1355">agregarTratamientoPaciente () : void</text><ellipse cx="18" cy="309.2715" fill="#84BE84" rx="3" ry="3" style="stroke:#038048;stroke-width:1.0;"/><text fill="#000000" font-family="sans-serif" font-size="14" lengthAdjust="spacing" textLength="205" x="27" y="313.2034">numeroPacientesMujer (): void</text><ellipse cx="18" cy="328.3394" fill="#84BE84" rx="3" ry="3" style="stroke:#038048;stroke-width:1.0;"/><text fill="#000000" font-family="sans-serif" font-size="14" lengthAdjust="spacing" textLength="222" x="27" y="332.2714">porcentajePacienteEstado (): void</text></g><!--link Hospital to Paciente--><g id="link_Hospital_Paciente"><path codeLine="88" d="M278.05,249.3979 C296.87,249.3979 310.43,249.3979 329.91,249.3979 " fill="none" id="Hospital-to-Paciente" style="stroke:#181818;stroke-width:1.0;stroke-dasharray:7.0,7.0;"/><polygon fill="#181818" points="335.91,249.3979,326.91,245.3979,330.91,249.3979,326.91,253.3979,335.91,249.3979" style="stroke:#181818;stroke-width:1.0;"/><text fill="#000000" font-family="sans-serif" font-size="13" lengthAdjust="spacing" textLength="21" x="296.5" y="242.2949">usa</text></g><!--link Paciente to TipoEnfermedad--><g id="link_Paciente_TipoEnfermedad"><path codeLine="90" d="M697.12,74.3879 C708.78,68.0079 720.76,62.4279 733,57.8979 C764.99,46.0679 1008.01,46.0679 1040,57.8979 C1093.16,77.5679 1118.8898,133.4336 1132.4698,181.5336 " fill="none" id="Paciente-to-TipoEnfermedad" style="stroke:#181818;stroke-width:1.0;stroke-dasharray:7.0,7.0;"/><polygon fill="#181818" points="1134.1,187.3079,1135.5042,177.5597,1132.7415,182.496,1127.8051,179.7333,1134.1,187.3079" style="stroke:#181818;stroke-width:1.0;"/></g><!--link Paciente to EstadoPaciente--><g id="link_Paciente_EstadoPaciente"><path codeLine="91" d="M697.12,74.3879 C708.78,68.0079 720.76,62.4279 733,57.8979 C761.76,47.2579 842.24,47.2579 871,57.8979 C880.61,61.4479 882.27,64.7579 888.5,72.8979 C917.37,110.6279 937.6103,154.2878 951.9903,191.1678 " fill="none" id="Paciente-to-EstadoPaciente" style="stroke:#181818;stroke-width:1.0;stroke-dasharray:7.0,7.0;"/><polygon fill="#181818" points="954.17,196.7579,954.6273,186.9197,952.3536,192.0995,947.1738,189.8259,954.17,196.7579" style="stroke:#181818;stroke-width:1.0;"/></g><!--link Paciente to GeneroPaciente--><g id="link_Paciente_GeneroPaciente"><path codeLine="92" d="M697.13,249.3979 C708.82,249.3979 714.5,249.3979 726.19,249.3979 " fill="none" id="Paciente-to-GeneroPaciente" style="stroke:#181818;stroke-width:1.0;stroke-dasharray:7.0,7.0;"/><polygon fill="#181818" points="732.19,249.3979,723.19,245.3979,727.19,249.3979,723.19,253.3979,732.19,249.3979" style="stroke:#181818;stroke-width:1.0;"/></g><!--link Examen to TipoExamen--><g id="link_Examen_TipoExamen"><path codeLine="94" d="M356.77,605.3979 C368.24,605.3979 373.7,605.3979 385.17,605.3979 " fill="none" id="Examen-to-TipoExamen" style="stroke:#181818;stroke-width:1.0;stroke-dasharray:7.0,7.0;"/><polygon fill="#181818" points="391.17,605.3979,382.17,601.3979,386.17,605.3979,382.17,609.3979,391.17,605.3979" style="stroke:#181818;stroke-width:1.0;"/></g><!--link Tratamiento to TipoTratamiento--><g id="link_Tratamiento_TipoTratamiento"><path codeLine="96" d="M832.56,605.3979 C844.26,605.3979 849.96,605.3979 861.65,605.3979 " fill="none" id="Tratamiento-to-TipoTratamiento" style="stroke:#181818;stroke-width:1.0;stroke-dasharray:7.0,7.0;"/><polygon fill="#181818" points="867.65,605.3979,858.65,601.3979,862.65,605.3979,858.65,609.3979,867.65,605.3979" style="stroke:#181818;stroke-width:1.0;"/></g><!--link Paciente to Examen--><g id="link_Paciente_Examen"><path codeLine="98" d="M369.054,435.4846 C341.664,469.8746 325.428,490.2546 302.068,519.5846 " fill="none" id="Paciente-Examen" style="stroke:#181818;stroke-width:1.0;"/><polygon fill="#181818" points="376.53,426.0979,369.6631,428.2992,369.054,435.4846,375.9209,433.2832,376.53,426.0979" style="stroke:#181818;stroke-width:1.0;"/><polygon fill="#181818" points="298.33,524.2779,307.0659,519.7299,301.445,520.3668,300.8081,514.7459,298.33,524.2779" style="stroke:#181818;stroke-width:1.0;"/><text fill="#000000" font-family="sans-serif" font-size="13" lengthAdjust="spacing" textLength="46" x="351.5" y="470.7949">registra</text><text fill="#000000" font-family="sans-serif" font-size="13" lengthAdjust="spacing" textLength="7" x="363.4774" y="447.8211">1</text><text fill="#000000" font-family="sans-serif" font-size="13" lengthAdjust="spacing" textLength="20" x="283.4607" y="512.6472">1..*</text></g><!--link Paciente to Tratamiento--><g id="link_Paciente_Tratamiento"><path codeLine="99" d="M614.9232,436.7094 C629.1432,463.6394 634.9771,474.6829 647.9271,499.1929 " fill="none" id="Paciente-Tratamiento" style="stroke:#181818;stroke-width:1.0;"/><polygon fill="#181818" points="609.32,426.0979,608.5845,433.2714,614.9232,436.7094,615.6588,429.5359,609.32,426.0979" style="stroke:#181818;stroke-width:1.0;"/><polygon fill="#181818" points="650.73,504.4979,650.0623,494.6717,648.3942,500.077,642.9889,498.409,650.73,504.4979" style="stroke:#181818;stroke-width:1.0;"/><text fill="#000000" font-family="sans-serif" font-size="13" lengthAdjust="spacing" textLength="46" x="632.5" y="470.7949">registra</text><text fill="#000000" font-family="sans-serif" font-size="13" lengthAdjust="spacing" textLength="7" x="606.0882" y="447.8211">1</text><text fill="#000000" font-family="sans-serif" font-size="13" lengthAdjust="spacing" textLength="20" x="625.9242" y="493.0635">1..*</text></g><!--SRC=[TLLDRzim3BtxLmWzDLqIO5UZ231qmL9W0uOs0tORM9b9MTYI8Sd5Fj3_FagoR2bfJWd99ufyUgGTkHR5PuAZWGx4JjkU7BJYXw9ND9R_6z9L9LkmLdm7IQWS_gk4M0bgabqBKYxubEwU3DkFpf0w1XSsq0I02AQZNc_L0KqN0_l2ZXYq3XhzIRe1sbfiWvNkchDyGOL6roB-HlypMQSDGRituA3p9nZnbRtYDdDj8jgW7LgVVFiREbGHU1kD3IC-J1sBQsvWERQr5C4eAr-ETIx2kIEw-ucUwqMTaIM4I93zr8M7p3tbyVc6X2dP2i1jHfY7bPG553ym7i74vZpcLLEJHp9wYh3JiMlXlUExlbKLgg4xeS3BOaSz6eVAabPBjk_0DAHxS0JUl5TsE90lIqP7Y8E4AMLPka-P5UPFRDMl1-meNE09I9Abltn6gobHf79YtMVwDhoWMOOpNgP56zaj7ifWR4Xwifoso-2v8pCSOzbS5Hhe2Keg0hdn-BP5wOoMeVymNF7S0_pHzkUO41mwD6Gx7HqxtRBjSyQ1onEkg4bpniO1vJEmOFc2TayTHg-RYgYpWc9i4disdVo-eo1cHGSxINqHGKa3fGJ68i-O2sNKfwo-qyJPjc1VCvZmZhoIR0P5RfWVuX7be1g_aspPHgxUyr4jcc76vD3oAB0G-Ih8r7wvrR7N9BQnqPRt1II9sN5_97iJ4tP0qxm9XZkICS3hvyXu0sRUCaKfvSnc8F4UAcFW8fI5cis43VDmUcclZUGel632nP6SSTMRO4AcJyLw8-OFmM2XggRxELIkY29qigNoK3cyLHKfcF95MLTPoocK2sxEUFNnIjoiLXl-irxVN8aq8-a5BYEBxqY2_mS0]--></g></svg>